<?xml version="1.0" encoding="utf-8"?>
<!-- Generator: Adobe Illustrator 18.0.0, SVG Export Plug-In . SVG Version: 6.00 Build 0)  -->
<!DOCTYPE svg PUBLIC "-//W3C//DTD SVG 1.1//EN" "http://www.w3.org/Graphics/SVG/1.1/DTD/svg11.dtd">
<svg version="1.1" xmlns="http://www.w3.org/2000/svg" xmlns:xlink="http://www.w3.org/1999/xlink" x="0px" y="0px"
	 viewBox="0 -54.3 800 708.7" enable-background="new 0 -54.3 800 708.7" xml:space="preserve">
<metadata><?xpacket begin="﻿" id="W5M0MpCehiHzreSzNTczkc9d"?>
<x:xmpmeta xmlns:x="adobe:ns:meta/" x:xmptk="Adobe XMP Core 5.6-c011 79.156289, 2014/03/31-23:39:12        ">
   <rdf:RDF xmlns:rdf="http://www.w3.org/1999/02/22-rdf-syntax-ns#">
      <rdf:Description rdf:about=""
            xmlns:dc="http://purl.org/dc/elements/1.1/"
            xmlns:xmp="http://ns.adobe.com/xap/1.0/"
            xmlns:xmpGImg="http://ns.adobe.com/xap/1.0/g/img/"
            xmlns:xmpMM="http://ns.adobe.com/xap/1.0/mm/"
            xmlns:stRef="http://ns.adobe.com/xap/1.0/sType/ResourceRef#"
            xmlns:stEvt="http://ns.adobe.com/xap/1.0/sType/ResourceEvent#"
            xmlns:illustrator="http://ns.adobe.com/illustrator/1.0/"
            xmlns:xmpTPg="http://ns.adobe.com/xap/1.0/t/pg/"
            xmlns:stDim="http://ns.adobe.com/xap/1.0/sType/Dimensions#"
            xmlns:xmpG="http://ns.adobe.com/xap/1.0/g/"
            xmlns:pdf="http://ns.adobe.com/pdf/1.3/">
         <dc:format>image/svg+xml</dc:format>
         <dc:title>
            <rdf:Alt>
               <rdf:li xml:lang="x-default">Print</rdf:li>
            </rdf:Alt>
         </dc:title>
         <xmp:MetadataDate>2015-02-05T15:44:16+01:00</xmp:MetadataDate>
         <xmp:ModifyDate>2015-02-05T15:44:16+01:00</xmp:ModifyDate>
         <xmp:CreateDate>2015-02-05T15:44:15+01:00</xmp:CreateDate>
         <xmp:CreatorTool>Adobe Illustrator CC 2014 (Macintosh)</xmp:CreatorTool>
         <xmp:Thumbnails>
            <rdf:Alt>
               <rdf:li rdf:parseType="Resource">
                  <xmpGImg:width>128</xmpGImg:width>
                  <xmpGImg:height>256</xmpGImg:height>
                  <xmpGImg:format>JPEG</xmpGImg:format>
                  <xmpGImg:image>/9j/4AAQSkZJRgABAgEASABIAAD/7QAsUGhvdG9zaG9wIDMuMAA4QklNA+0AAAAAABAASAAAAAEA&#xA;AQBIAAAAAQAB/+4ADkFkb2JlAGTAAAAAAf/bAIQABgQEBAUEBgUFBgkGBQYJCwgGBggLDAoKCwoK&#xA;DBAMDAwMDAwQDA4PEA8ODBMTFBQTExwbGxscHx8fHx8fHx8fHwEHBwcNDA0YEBAYGhURFRofHx8f&#xA;Hx8fHx8fHx8fHx8fHx8fHx8fHx8fHx8fHx8fHx8fHx8fHx8fHx8fHx8fHx8f/8AAEQgBAACAAwER&#xA;AAIRAQMRAf/EAaIAAAAHAQEBAQEAAAAAAAAAAAQFAwIGAQAHCAkKCwEAAgIDAQEBAQEAAAAAAAAA&#xA;AQACAwQFBgcICQoLEAACAQMDAgQCBgcDBAIGAnMBAgMRBAAFIRIxQVEGE2EicYEUMpGhBxWxQiPB&#xA;UtHhMxZi8CRygvElQzRTkqKyY3PCNUQnk6OzNhdUZHTD0uIIJoMJChgZhJRFRqS0VtNVKBry4/PE&#xA;1OT0ZXWFlaW1xdXl9WZ2hpamtsbW5vY3R1dnd4eXp7fH1+f3OEhYaHiImKi4yNjo+Ck5SVlpeYmZ&#xA;qbnJ2en5KjpKWmp6ipqqusra6voRAAICAQIDBQUEBQYECAMDbQEAAhEDBCESMUEFURNhIgZxgZEy&#xA;obHwFMHR4SNCFVJicvEzJDRDghaSUyWiY7LCB3PSNeJEgxdUkwgJChgZJjZFGidkdFU38qOzwygp&#xA;0+PzhJSktMTU5PRldYWVpbXF1eX1RlZmdoaWprbG1ub2R1dnd4eXp7fH1+f3OEhYaHiImKi4yNjo&#xA;+DlJWWl5iZmpucnZ6fkqOkpaanqKmqq6ytrq+v/aAAwDAQACEQMRAD8A9U4q7FXYq7FXYq7FXYq7&#xA;FVO4uIba3luJ3EcEKNJLIeiooqxPyAxV89edP+cl/Mcvnm28t/lfZad5pS6txJDJ++eRplEjzIAs&#xA;kI+COPlgZAME/NWD/nIj8ytPsbHWvI4to9PlaeE2SlGZnXiwb1Zpdh7DBbMwH4Kj+Z3/ADj15X8o&#xA;3lha6bqV9NHcRSyObn0uQJohpxjj2pmNqNScZAp3vY3YkdZGUjIx4T71DWf+cZVb8tNO8w+Vl1HW&#xA;PMF3MFm08GERLDykVnX4FO3Bf2u+XYsnFEF1naGjGnzSxg3w9fgzOz/M3/nJzy55cgtz5CtBpmjW&#xA;ax/WZY5SRBaxAeo5W5A+wlTQZZbimI/BD0T8j/z307z7pcNtrFxZWfmyWWdV0m29QcoYlDiRQ7Sf&#xA;s1r8XbEFhKNPWsLF2KuxV2KuxV2KuxV2KuxV4B/zlT5x86aJdeT9H8t6kdPTzC97aXycUKSgm2jQ&#xA;OWR2UD1m+zvvikCywTyB+W3/ACp78wdKv/Npgu7+3Wa5juNNeaULDcQS2yrxlW3Bbnyr8PQ9cw82&#xA;cwyAH6a/W9P2X2PHVaKcogeNx0CSeXpPu7+j0/zn+dsc1hAvlWee0vlmYzyTQQlTEwJ4jn6ory49&#xA;spy6yx6ObsOzfZkxmfzAjKFbUTz+FPM/MXmvX/Mc0M+s3X1qWBSkTenHHRSakUjVAd/HMPJllPm9&#xA;Ro9Bh0wIxR4QfMn7yUx0n8zfPGkadDp2n6l6FnbgiGL0Ld+IJLH4njZjue5ycdROIoHZxtR2Jpc0&#xA;zOcLkee8v0F6Vqn5zeUNQ8qXelTJdvc3djJay1iUIXkhMZ3D7Ak9szfzseHrbyo9ls/i2eHw+LvP&#xA;K/d3PnW5/Ljzr5I0Kb81/K2oWumadZgQWqI8kl4jTSrayfBLFJEQxdur9Mv00zKFnm6ntzTQwamU&#xA;MYqIA+7zfXv5WavqOsflx5b1XUpjcahe6fbz3U7BQXkdAWYhQF3PgMvdQynFXYq7FXYq7FXYq7FX&#xA;Yq+N/wAx/PPm380vzH0qw0zyzctaeSdYlgurqxWa7XhJdRoJJ+EfGIcbMkVPj4YCygd30t+bVpav&#xA;5E1e4eBGuEijCTFQXUesvRqVHXKNUBwEu49n8khq4RBNWdvgXif5ceQ4vOF7eW0l41mLWNZA6xiT&#xA;lyalN2Wma3T4PEJF09z2z2qdHGMhHi4j30+jH0bRw5AsLenwf7qTuxB7Zt+Adz5qNTkr6pdepSjz&#xA;l+X2leY9IGnx+npzCVZfrEMKFqKCOO3DY8vHK8uATFcnN7O7XyabJxm57VRJfPuhadHafmJp+nOR&#xA;NHb6vDbsWUUdUuQhqu/WnTNVCNZAP6X6X0TVZjPRSmNicRP+xt6p/wA5FaHqV7+T+s6Z5f0+a5vH&#xA;ntDBZWELSStSeJ34RxAsaAEmgzdAU+VSkZbk2a/Sx/8A5xm/M/Vtbt5PImp6MdLuvKdjDDK8ruJ3&#xA;eNvSYSwuiGNttxXJNT3fFXYq7FXYq7FXYq7FXYq+V/yM86eXfLfnz80I9WuWt2vdSX0BHG8nL0ri&#xA;8D8qK1KeoOmVZcsYc3Y6Ds/LqSfDAPDz3plf5nfmqdWD6VodyJ9EurdBdGSEpJ6wlZiAWCmlFTtm&#xA;v1Op4to/S9j2J2D4P7zKKyxltR2qv7Uu/KDzboflvUdQm1a4e3juIUSJkRpCWDVIoobI6XLGBNuT&#xA;7Q9n5dTCIxiyD30+g5PU5n7f7H8n8xzavnQqvn3oHzD5k0zy/YC/1aaWC1LrEHCB/jYEgUQMf2Tk&#xA;cmQQFlv0mjyaifBjAMqvu+98wXmsNF5rn1mwYFkv2vLR2XaomMkZKn6Ns0pn6uId76pj096cYp/z&#xA;OE/Ki9i8rfnPoT6PA/mG+aLVi7mdYoHKAVKoRxVh9mmbDHq416ju8XrvZvKMhGGN46FXL59WC/8A&#xA;OPmp2Oqfnj+ZGoWLB7a5eSSNwHViDdGhYP0PyzNibFh5bNiOOZhL6okg/B9IYWt2KuxV2KuxV2Ku&#xA;xV2Kvz21TWbjy/8AmD5qkewmmF3qd0EJqgHG5kNQSG5D4uuY2owHJW/J3nYva0dGZEx4uKutcl2g&#xA;W3mX8wvO+n6PpdzdaKL6sKyFpTAjRo8hZ+HDqBTpji00YiiAU9o9u5c+TixynjFchI/PamQfm5+U&#xA;nnT8uNNsLu+8yy341CUwxpaNcckMUdWY82GzVy3wYdw+Tgfynqv9Vyf6aX63rln+S35/z2kM/wDy&#xA;s6Y+qnqCst1WjqCvf9k7jLHCtgP52eQvzi8o+VLbUfMPnu71uxnvo7VbSF7glZGilkWQ8mUUCxEf&#xA;TglEHmGzFmnjNwkYnyNNXX/OOf5gp5Im84L5uJtF0xtXWyVrkzGMW5uPSHxU5cfh+eQ8GHcPk5P8&#xA;p6r/AFXJ/ppfreb6N511HTLAW17Z3N5OC0hmmdg9C1AtGDHb55i5dHxGxs7/ALP9pzhxcExLJLvM&#xA;v129i/5w69efzx5sv3gkhS7t1lUOpAHO4LUB6NSuZkI1EDuea1WYZcspjbikT8zb6wyTjuxV2Kux&#xA;V2KuxV2KuxV5p+d35TeXPPWkQ6lq9zeQT+W7e8ubFbR4lV2kRHIlEkUpYVt1+yR3xV5V/wA4efmF&#xA;5Q07y5L5Ovb/ANLzHqmrz3FjY+jO3qRm0gHL1VQxL/cPszg7fLFXtP5p/lF5b/MqwsbHXbm8totP&#xA;laeFrF4o2LOvEhvVimFKeAGKszt4Egt4oEJKRIqKT1oooK4qxT8z/wAsNA/MfQLfQ9cuLu2tLa7S&#xA;9R7J40kMiRyRAEyxzLx4zHt4b4qnKfonyl5TX6xO8ekaBYD1bmQGR1trKH4nYRrViEjqeK79hir5&#xA;J1Wy8lfnH/zknJbW2oXE3lvV7ReN7aqbeUm0tASFFzESv7yGh5J8sVfXPlfy9ZeW/Lum6BYvJJZ6&#xA;Xbx2tvJOVaVkiXipcqqKTtvRRiqZ4q7FXYq7FXYq7FXYq7FXmn5ufnd5K/L+a30jzJY396ur28jB&#xA;bKOF09KvpurmSaAgmvbFXxx5187eVYPO1trn5WWdz5as7WBBEJQonW5+NZHVvUuaBkYD7f0YqqN+&#xA;f35u8Tx81X4b4aEuv8vx9u7Yq0n5+/m6EAbzVflhyqea/wAvwduzdcVWf8r8/OP/AKmy/wDH7a/8&#xA;04qo6n+d35qaja3djdeZb2fT7yOSCe2kZSrwyAqyMKdGVqHFXon5Afmd+UXlb9GHV9Cvp/OxuZLe&#xA;DVrVIzEsV03potGuIh0c8v3eKvtTFXYq7FXYq7FXYq7FXYq7FXxL+U9zcHR/O1+bL9M31lNzsrWV&#xA;TOzMBKRGgozfER0XNL2qfXjHFwg3Z+Tt+zR6JmuIiv0vTPJKrrXl6DUNY8vQ6VfyNIJLKS34MoVy&#xA;qnjIqt8QFc0uqkYTMYzMh327XTxE4XKAie6k9/Qei/8AVvtv+RMf9Mx/Hyfzj82/wYdw+Tv0Hov/&#xA;AFb7b/kTH/THx8n84/NfBh3D5O/Qei/9W+2/5Ex/0x8fJ/OPzXwYdw+Tv0Hov/Vvtv8AkTH/AEx8&#xA;fJ/OPzXwYdw+Tz+11HUNTtPOFvqPldNIg0y3uBp16bZo/XCrKA6M6KDQIrVU982dCMsZjkMuIixf&#xA;Lk6+zKOQGHDQNGve9B/5w+nnn/KeZ5pGlf8ASlyOTsWNPTh7nOpece4Yq7FXYq7FXYq7FXYq7FXx&#xA;x/zjv9vzX/zGx/8AM3Oe7d5w+P6He9jcpfD9L2TOfd07FXYq7FXYqlXmv/lFtZ/5gbn/AJMtl+l/&#xA;vY/1h97TqP7uX9U/cqf84cf+Skm/7atz/wAmoc7p457pirsVdirsVdirsVdirsVfHH/OO/2/Nf8A&#xA;zGx/8zc57t3nD4/od72Nyl8P0vZM593TsVdirsVdiqVea/8AlFtZ/wCYG5/5Mtl+l/vY/wBYfe06&#xA;j+7l/VP3Kn/OHH/kpJv+2rc/8moc7p457pirsVdirsVdirsVdirsVfHH/OO/2/Nf/MbH/wAzc57t&#xA;3nD4/od72Nyl8P0vZM593TsVdirsVdiqVea/+UW1n/mBuf8Aky2X6X+9j/WH3tOo/u5f1T9yp/zh&#xA;x/5KSb/tq3P/ACahzunjnumKuxV2KuxV2KuxV2KuxV8cf847/b81/wDMbH/zNznu3ecPj+h3vY3K&#xA;Xw/S9kzn3dOxV2KuxV2KpV5r/wCUW1n/AJgbn/ky2X6X+9j/AFh97TqP7uX9U/cqf84cf+Skm/7a&#xA;tz/yahzunjnumKuxV2KuxV2KuxV2KuxV8W/kdqtppOneddTvCwtbO4E0xUcm4IJSaDvmh7Zxmc8c&#xA;RzN/od12VMQjOR5Cv0vWvLPmXS/MmjxavpjO1nMzqhkXg1Y2KtsfcZos+CWKXDLm7jDmjkjxR5Jr&#xA;lLa7FXYq7FWE3HnrQPMOkea9O015GudJtLmO8DoUAbhInwk9d0ObCGlnjnjlLlKQr7HCnqYZITA5&#xA;xBZL/wA4cf8AkpJv+2rc/wDJqHOxeVe6Yq7FXYq7FXYq7FXYq7FXyB5g8sat+TN3d6W2lN51tfMw&#xA;a5mEUTxRRKjMpikX07pX5B+9MwNbojmMSJcJj+O8ObpNWMQIMeLiQFh+cms6daraaf8AlvcWdqhJ&#xA;SC3LxRgsamipaAbnMCfYspG5ZLPu/a5se1hEUIUPf+xE/wDK9vNP/Ug33/I2b/slyP8AIX9P/Y/t&#xA;Zfyz/Q+39jv+V7eaf+pBvv8AkbN/2S4/yF/T/wBj+1f5Z/ofb+x3/K9vNP8A1IN9/wAjZv8Aslx/&#xA;kL+n/sf2r/LP9D7f2O/5Xt5p/wCpBvv+Rs3/AGS4/wAhf0/9j+1f5Z/ofb+xAWv5g317Jc6ZZflz&#xA;JpM2vVtLvUIlZTW4JT1ZeNrGZOJkLbt9OXx7KmJRJyGXCeVftaZdpRqQEAOIfjo+l/yV/LKf8uPJ&#xA;7+X59QXUne7lu/rCRmEUkVF48Sz9OHjm5dSz3FXYq7FXYq7FXYq7FXYq7FXYq7FXYq7FXYq7FXYq&#xA;7FXYq7FXYq7FXYq7FXYq7FXYq7FXYq7FXYq7FXYq7FXYq7FXYq7FXYq7FXYq7FXYq7FXYq7FXYq7&#xA;FXYq7FXYq7FXYq7FXYq7FXYq7FXYq7FXYq8s/wAa+Zv+Wz/klF/zRnG/yrqP532D9T2H8l6f+b9p&#xA;/W7/ABr5m/5bP+SUX/NGP8q6j+d9g/Uv8l6f+b9p/W2vnXzMTvedj/uuLw/1MI7V1H877B+pB7L0&#xA;/wDN+0/rTnyj5l1rUNZW3u7n1YSjsV4RruBtuqg5n9ma/Nly8MpWK7h+pwe0tDix4uKIo33lnOdE&#xA;887FXYq7FXn3546pqWm+S0uNOu5rK4N5Ehmt5HifiUcleSEGm2YWvmY47Brd33s5hhk1FTAkOE8x&#xA;fc8EHnjzr6LH/EGpV5Lv9cn8G/y8035jJ/OPzL3H8naa/wC7h/pY/qcfPHnX0VP+INSrybf65P4L&#xA;/l4/mMn84/Mr/J2mv+7h/pY/qWf4586/9TBqX/SZP/zXg/MZP5x+ZZfydpv9Th/pY/qXv5486hY6&#xA;eYNS3Xf/AEyf+Y/5eH8xk/nH5liOztNv+7h/pY/qWf4586/9TBqX/SZP/wA14PzGT+cfmWX8nab/&#xA;AFOH+lj+p3+OfOv/AFMGpf8ASZP/AM14/mMn84/Mr/J2m/1OH+lj+p9T+TZ57jyhoc88jTTzafay&#xA;SyyEs7u0KlmZjuSTuSc6LAbhEnuD5lr4iOoyACgJy+8vKM4F7V2Krk6/Qf1YQgsh8hf8pCn/ABik&#xA;/Vm07G/vx7i6ztj+4PvD0zOueTdirsVeffnjqmpab5LS4067msrg3kSGa3keJ+JRyV5IQabZha+Z&#xA;jjsGt3fezmGGTUVMCQ4TzF9z57vfMnmLU7V7fUdVvL2BaOIbi4llQMCAG4uzCtCc0ksspCiSXvce&#xA;kw45XCEYnyACWj+5f/WX9TZByOrj/cp/rN+pcV6rMCV8n2I/9X/jY4UDqswJdiqcQecvN9vBHBBr&#xA;moQwQqI4oo7qZURFFFVVDUAA2AGWjPMbCR+biS0GnkSTjgSf6I/UhP05rX/Vwuf+R0n9cx/Dj3Bv&#xA;8GH80fJGaPrGryavYxyX1w6PcRK6NK5BBcAggnIzhHhOw5NeXFAQOw5Ho9UTr9B/VmuDoiyHyF/y&#xA;kKf8YpP1ZtOxv78e4us7Y/uD7w9Mzrnk3Yqp3N1bWsLT3MqQQJTnLIwRBU0FWag6nBKQAspAt5t+&#xA;c2saXe+UUisL6C5nF3E3pwSpI/EK4JohJpvmq7TyxliqJBNuRpwRJ4gguuL1D147detRnP7ubxKk&#xA;NtqM0biKKaRgVrxVmIFD4Y2WURI8rLprfUIUQSxTRuSxoyspI28cbKyEhz2aitNUlUtFDPIoNCyK&#xA;7Cv0DBZTGMjytm/lm3uY9IiWaJ0k5PyDqQ32jStcpyE27rRCse6a+m/8p+7K/U5lh51rK3Q1a74h&#xA;6eq9KV8cyY3TzupP7yXvZ7p8cn1C2qpr6Sdj/KMxzxW77ERwD3PP5rDWA0jG2uAgJJPB6U+7MgEu&#xA;glCdnYob/S/+LP8Ahslu1cSpG97yNWkpxbqW68TTEWi2cfku1yfPEIlL8fq81OVaV4++bDsu/G+B&#xA;aNQfS+gs6ZwHYqw783v/ACXerf8ARv8A9RMWYPaX9xL4feG7B9YfN6fZk/1f+NhnLB2Dk+zJ/q/8&#xA;bDEKyjyL/wAf3/PL/jfKsvJ2nZnOSn54/wB6LT/Ub9Yxx8mHaX1D3K3lLUbG202SO4nSJzMzBWYA&#xA;04qK/hkcgJLboMsIwIJrf9TJoriC4iSSBxJGQQGU1FQTkCHYwmJbjddkWbA9X0jU5NTupI7WRkaR&#xA;irBSQQTmRGQp0OfBMzJAPNlNpq2mQ2kMUt1Gkscao6FgCGUAEH5ZSYl2uPPARAJF0jL1TJYzqg5M&#xA;8ThQO5KmmAc23ILia7nn/wChNX/5Y5f+AOZHEHQflsn80tHS9ShVpZraSONVbk7KQBUEYRIMZYJx&#xA;FkGmYfkn/wAp1F/zDzfqGbLsr+++BcPUfS+h86dwHYqw/wDN0E/l5qwFP+Pfqaf8fMXjmD2l/cS+&#xA;H3htwfWHzikTcZN13X+Zf5h75ywDsHJE3GTdd1/mX+Ye+ICsg8o3drZi7NzMkQf0+JLDenOvT55X&#xA;kiSHYaDLGBPEaVfMdvLq7wSaaBcxxBlkZCKAmhpuRjDYbs9WPFkDD1Uk/wDhrXP+WVv+CX+uS4g4&#xA;v5XJ/NLMfLllc22kxQzp6cgLkqSO7E+OU5Ny7bRRMYURumfA+33jIU5doGTWdKjkaN7qNXQlWUtu&#xA;CDQjJcBaDqsYNEvP71fUvJ5EZSjyOynku4LEjvmQBs6DIQZE+bO4tc0gRIDdx1Cio5e2Y/hl3o1e&#xA;Kua/9O6P/wAtcX/BY+GU/m8X85D6hd22pWctjYSC6vLgcILeL4ndq1ooHXLMWKRkAA4+r1OM4yAU&#xA;0/KPyr5k03zjHdahplxa24glUyyxsq1IFBUjN32dp8kMtyiQKedzzBjsXuOdC4TsVY5+YmjahrXk&#xA;7UNM09BJeXHo+khYIDwnR2+JqD7KnMXW4pZMRjHma+9sxSAkCXi6/k35+CuPqMfxCg/fxeIP83tm&#xA;h/kzN3faHM8eCGvfyt84adbtPe28cMTUQP6qN8RNQKIWP7OU59JkxR4pig3YP3suGPNLx5N1f0mH&#xA;KLdl/aPgfbMPjFOZ+QyMg8taTc6dZyR3DJyeTkvEkinEDwyuZBdho8MsYIKb8R/MPx/pldOba5lF&#xA;F+IdPfxPthIQCt4j+Yfj/TBSbYbf+UtUnvriZGi4Syu61Y1ozEj9nLhMU6bLoskpEjqVD/Bmr/zR&#xA;f8Ef+acPGGH5DKsl8o6rFE8rtFxjUs1GPQCp/Zw8YRLQ5ALSy1spLq5htoGV553WKJdxVnPFRUgD&#xA;qcsjGzQ6uETT0ryX+VvnPS/NWm6heWiJa20weVxNGxC0PYNU5tdL2flhkjIjYHvcfJmiYkB7lnQu&#xA;E7FUNqd/Dp2m3eoThmhs4ZLiVUALFYlLsFBIFaDbfIZJiMTI9BaQLNPP/wDlffk//lj1D/kXB/1W&#xA;zW/yvi7pfZ+tv/LS8mx+fPlAhj9T1D4RU/u4PED/AH974/yvi7pfZ+tfy0vJKPM35weWNY0z6rb2&#xA;95G6SLIWljiC0FR+zIxr8XhmD2hroZ8fDEG76ud2f+5ycUuVMUHnLSPTY8Zeo/ZHgffNJ4Zp3f8A&#xA;KGPzcfOWkemp4y9T+yPAe+Phml/lDH5qEvnvRI24ss1aV2Qf81YY4JF2WkxnPDijytVXzto7xoyr&#xA;NQg9VH8x/wArGWIhxdTnjgmYS5u/xlpHhL/wI/rkfDLR/KGPzd/jLSPCX/gR/XHwyv8AKGPzUG8/&#xA;aGGIKz1Bp9gf81ZMaeTuIaScoiQqiEQvmPT9RYafbiT6xeH6vCWUBecvwLU1O1TghhkZAOjy9oYz&#xA;E8+Sb6N+S3nCz1ixu5ntPStriKWTjKxPFHDGg4eAzeYuy8sZAmti89LURIe6Z0LhOxVSurhba1mu&#xA;HBKwo0jAdSFBJp92CRoWkB5Nr353eX9R0LUdPisLtJby1mt43b0+IaWNkBNHJpU5pc3asJQMQDuC&#xA;HKjpyCC8ZzROWvT7Mn+r/wAbDCFcn2ZP9X/jYYhXD+5b/WX9TY9Fcf7lf9Zv1Lj0VCXFs8knIEAU&#xA;pvk4ToO+7N7Whp8fBIEm7bMwt444nFSFJqPdjkjHi3bcuilrpHNAiMTtvz2VY3DoGGwOVEUXR6nA&#xA;cOQwPMLsDQg3spCxPIbknvlwyinqsPb2KEBExlsAOibeV71D5l0kBTU3tuB/yNXJ4MR44+8OBn7B&#xA;ywxykZR2BPV9YarqEWnaXeahKrPFZwSXEiLTkViQuQK0FaDOsyT4YmR6C3j4izTztfz88uMaDTrz&#xA;oT/ursK/z5q/5Yx9xcj8se9OPKf5raN5l1hdLtLO4hmZHkDy8ONEFT9licv0/aEMsuEAsJ4TEWhb&#xA;r8wZrq1mtTZKgnRoufqE05grWnH3zVS7cMhXDz83efyIBvxfY8o/wNF/y1t/wA/5qzTeK5X8mD+c&#xA;hNW8qR2Gny3QuTIY+PwFQK8mC9a++SjkstWfQiEDK+SQJ9mT/V/42GWh1zk+zJ/q/wDGwxCuH9y3&#xA;+sv6mx6K4/3K/wCs36lx6KswKg9Q/vE/1P8AjY5k4/pe27C/xce8rY7wogTjWneuRljstWq7EGbI&#xA;Z8VX5Lvr5/k/HB4TR/ocj/PPy/a76+f5Pxx8Jf8AQ5H+efl+1FeVf+Uo0f8A5jrb/k8uZWH6x7w7&#xA;vW/3E/6kvufV3nP/AJQ/Xf8Atn3f/Jh86HVf3Uv6p+58nx/UPe+VovtH/Vb/AIic48OzZ1+Sf/Kd&#xA;Rf8AMPN+oZsOyv774Fo1H0p1H9tfmM0g5vYHktwJQ9/ZRX1pJaylljkpyKUB+Fg21QfDCDRa8uMT&#xA;iYlivmLy/Z6XpM13bvI0gKLSQqVozDwVcyMMuI0WnT9k4pzAJl9n6mIx303CTZfs+B/mHvmUMQdg&#xA;fZ/B3z+Y/U4X03otsv2l7Hwb3x8IL/ofwXzn8x+pEW8zy24LUFHYbfJcrnGnR9q6GGnmBEk2Oqjc&#xA;XMkcnFQCKV3wwgCHM7M7KxZ8XHIyu62r9ShcSNJ6bNSpXt/rHLhGg9Jo9LHBDgjdX1ZdoXkrSr/S&#xA;be8mlnWWUEsEZAuzEbVQ+GYuTUSjIhx82slCZAAYrqtrHaalc2sZJjhkZFLUJoppvQDMmErALn4p&#xA;cUQT1QuSZvQj5R03RwdWtpJnudO/0uBJGUoXg/eKGCqp41XehGYmLVS4hy5uoOpll9BqpbfPZEah&#xA;+fHm/U7C502ez09YL2J7aVo45g4SVSjFSZmFaNtUZuMvaE5QIIG4/HV1ef2a0+PHKYlO4gnmOn+a&#xA;w6L7R/1W/wCInNOHnGdfkn/ynUX/ADDzfqGbDsr+++BaNR9L1248haHDbyyo03KNGdauKVUVH7OZ&#xA;0+x8MYkji283Jh2vmlIA1u885D+Ufj/XOWt6ekBrl9LZ6XPcwKolj48SakbuAe/gclGiWjUzMMZk&#xA;ObDL7X77UbOW2ughiNGIUEbhhTeuZEAImw6yHaWaBsH7EkmjgjhdljANB3b+Ye+ZGOZJd12V2jmz&#xA;5eGZ2q+SFDr6Lfu1+0u3xeDe+WvRVvzVEumjhXii0LNt8XgPfIyiC4Wq7Ox55XO9gpSXHqNyaNSf&#xA;9l/XEABv02khhjwwum3deMf7tfs/5X8x98k3Ac902sfOOr2VrHawekIYgQgKknck9a++UywxJstE&#xA;9JCRs2ld1evc3ElxNGhllYu5HIbk16A5ZEACm+MOEUCpeon++1/4b+uSZV5p5cedtbuLeW3l9Ixz&#xA;I0b0ShKsKHvlAwRBtxY6OANi0mikT1U/dr9ofzePzy2R2K60fuJ7/wAEvuTaJ15H92o+Fv5v5T75&#xA;igvnbOfyUYHzzFRQv+jzbiv8o8Sc2PZf998C06j6X0HJGskbRvurgqw9iKHOlkLFFwYmjYYh5l8p&#xA;aHY+XNVvbaFkuLWzuJoXLsaPHEzKaE0O4zUZ+ysEcciBuAepdnDtXOSBf2B8+XWv6tdQNb3E/OJ6&#xA;cl4IK0II3Cg9RnOiADlT1WSQonb4IJPsyf6v/GwyYcdb6aSRyBhUcQaf7IYYkhvwameGXFA0UJdQ&#xA;xxwfAKVYV+45djkTdvT9i63LnlLxDdV0H6EMf7lP9Zv1Llrv+qzAlfJ9iP8A1f8AjY4UDqswJdir&#xA;sVdiq+H+9T/WH68jLkXF139xP+pL7k2i+0f9Vv8AiJzGD52zr8k/+U6i/wCYeb9QzYdlf33wLRqP&#xA;pe+6tI8el3kkbFXSCRkYbEEISCM6TIaifc4Meb5gn87+b7iCS3n1i7lgmVo5YnlYqyMKMrAncEZy&#xA;R1WUijIuyGOPck/qt4L/AMCv9MotmvSVuMmy7L/Kv8w9sQUKFxPIsDlaA0HRVHce2WY9y7fsXDDJ&#xA;mqQscJ5oI3ErQsWINGWlVXuD7ZeBT2GLTY8Z9ERG+5aZW9FTRftN+yvgvthtt4d1nrP4L/wK/wBM&#xA;bZcK95W4x7Luv8q/zH2xtiI81nrP4L/wK/0xtlwu9Z/Bf+BX+mNrwvpnyl+XPke88qaLd3OjW8tz&#xA;cWFtLPIQas7wqzMaHuTm+w6bGYRJA5B8513auphnnGM5ACcgPmmv/Krfy+pT9B233N/XLfymL+aH&#xA;F/lnV/6pJsflf+X4NRodsCOho39cH5TF/NDGXa2qkCDM0VT/AJVv5GHTRrcfQ39cH5HD/NDheLLv&#xA;Rel+TfK+lXYu9O06G2uQpUSoCDRuo3OTx6XHA3EUUSySPMo3Wv8Ajj3/APzDy/8AEDk8v0H3MY83&#xA;yPnFu1ZN+W1paXnnfSra7hjuLeSRxJDKodGAic7qwIO4zL0MRLNEEWGvKaiXon546BoOm+S0uNO0&#xA;21spzeRIZbeGOJypVyV5IoNNs3OvwQjjsRA37nYezgE9TUvUOE89+54IjsySVJPwjqf8oZpwA95H&#xA;DCJBjED3BaP7l/8AWX9TYW3q4/3Kf6zfqXFeqzAl79+R3lry7qXkt7jUdKs72cXkqCa4t4pXChUI&#xA;Xk6sabnbNzoMUZY7IB3eF9otXmx6moTlEcI5Ejveg/4G8lf9S/pv/SHB/wA0Zm/l8f8ANHyDov5R&#xA;1P8Aqk/9NL9bv8DeSv8AqX9N/wCkOD/mjH8vj/mj5Bf5R1P+qT/00v1pxBBBbwRwQRrDBCojiijA&#xA;VERRRVVRsABsAMtArYOJKRkSSbJX4WLsVdirsVf/2Q==</xmpGImg:image>
               </rdf:li>
            </rdf:Alt>
         </xmp:Thumbnails>
         <xmpMM:InstanceID>xmp.iid:bd3e6d17-905c-4aaf-824c-3600f7dddcfd</xmpMM:InstanceID>
         <xmpMM:DocumentID>xmp.did:bd3e6d17-905c-4aaf-824c-3600f7dddcfd</xmpMM:DocumentID>
         <xmpMM:OriginalDocumentID>uuid:5D20892493BFDB11914A8590D31508C8</xmpMM:OriginalDocumentID>
         <xmpMM:RenditionClass>proof:pdf</xmpMM:RenditionClass>
         <xmpMM:DerivedFrom rdf:parseType="Resource">
            <stRef:instanceID>xmp.iid:2704cd29-d60c-48e3-964f-4dd633463129</stRef:instanceID>
            <stRef:documentID>xmp.did:2704cd29-d60c-48e3-964f-4dd633463129</stRef:documentID>
            <stRef:originalDocumentID>uuid:5D20892493BFDB11914A8590D31508C8</stRef:originalDocumentID>
            <stRef:renditionClass>proof:pdf</stRef:renditionClass>
         </xmpMM:DerivedFrom>
         <xmpMM:History>
            <rdf:Seq>
               <rdf:li rdf:parseType="Resource">
                  <stEvt:action>saved</stEvt:action>
                  <stEvt:instanceID>xmp.iid:2704cd29-d60c-48e3-964f-4dd633463129</stEvt:instanceID>
                  <stEvt:when>2015-02-05T15:38:20+01:00</stEvt:when>
                  <stEvt:softwareAgent>Adobe Illustrator CC 2014 (Macintosh)</stEvt:softwareAgent>
                  <stEvt:changed>/</stEvt:changed>
               </rdf:li>
               <rdf:li rdf:parseType="Resource">
                  <stEvt:action>saved</stEvt:action>
                  <stEvt:instanceID>xmp.iid:bd3e6d17-905c-4aaf-824c-3600f7dddcfd</stEvt:instanceID>
                  <stEvt:when>2015-02-05T15:44:16+01:00</stEvt:when>
                  <stEvt:softwareAgent>Adobe Illustrator CC 2014 (Macintosh)</stEvt:softwareAgent>
                  <stEvt:changed>/</stEvt:changed>
               </rdf:li>
            </rdf:Seq>
         </xmpMM:History>
         <illustrator:StartupProfile>Print</illustrator:StartupProfile>
         <xmpTPg:HasVisibleOverprint>False</xmpTPg:HasVisibleOverprint>
         <xmpTPg:HasVisibleTransparency>False</xmpTPg:HasVisibleTransparency>
         <xmpTPg:NPages>1</xmpTPg:NPages>
         <xmpTPg:MaxPageSize rdf:parseType="Resource">
            <stDim:w>282.222222</stDim:w>
            <stDim:h>250.000000</stDim:h>
            <stDim:unit>Millimeters</stDim:unit>
         </xmpTPg:MaxPageSize>
         <xmpTPg:PlateNames>
            <rdf:Seq>
               <rdf:li>Cyan</rdf:li>
               <rdf:li>Magenta</rdf:li>
               <rdf:li>Yellow</rdf:li>
               <rdf:li>Black</rdf:li>
            </rdf:Seq>
         </xmpTPg:PlateNames>
         <xmpTPg:SwatchGroups>
            <rdf:Seq>
               <rdf:li rdf:parseType="Resource">
                  <xmpG:groupName>Default Swatch Group</xmpG:groupName>
                  <xmpG:groupType>0</xmpG:groupType>
               </rdf:li>
            </rdf:Seq>
         </xmpTPg:SwatchGroups>
         <pdf:Producer>Adobe PDF library 10.01</pdf:Producer>
      </rdf:Description>
   </rdf:RDF>
</x:xmpmeta>
                                                                                                    
                                                                                                    
                                                                                                    
                                                                                                    
                                                                                                    
                                                                                                    
                                                                                                    
                                                                                                    
                                                                                                    
                                                                                                    
                                                                                                    
                                                                                                    
                                                                                                    
                                                                                                    
                                                                                                    
                                                                                                    
                                                                                                    
                                                                                                    
                                                                                                    
                                                                                                    
                           
<?xpacket end="w"?>
	</metadata>
<g id="Layer_1">
	<g>
		<rect x="408.6" y="112.1" fill="#FAA646" width="137.1" height="137.1"/>
		<rect x="408.6" y="249.2" fill="#020202" width="137.1" height="8.6"/>
		<rect x="408.6" y="103.5" fill="#020202" width="137.1" height="8.6"/>
		<rect x="400" y="112.1" fill="#020202" width="8.6" height="137.1"/>
		<rect x="545.7" y="112.1" fill="#020202" width="8.6" height="137.1"/>
		<rect x="417.1" y="120.6" fill="#020202" width="8.6" height="8.6"/>
		<rect x="417.1" y="232.1" fill="#020202" width="8.6" height="8.6"/>
		<rect x="528.6" y="232.1" fill="#020202" width="8.6" height="8.6"/>
		<rect x="528.6" y="120.6" fill="#020202" width="8.6" height="8.6"/>
	</g>
	<g id="Layer_1_1_">
		<g>
			<polygon fill="#FFFFFF" points="527.9,98.3 434.6,100.7 422.8,67.9 438.5,56.1 477.5,53.8 525.7,55.9 545.4,69 			"/>
			<polygon fill="#EC2727" points="436.8,-28.7 530.9,-28.7 556.8,60.6 534.9,62.6 515.2,52 432,51.9 429.8,64.2 403.1,64.2 
				403.1,49.3 412.3,-0.7 			"/>
			<rect x="462.6" y="-37.5" fill="#020202" width="8.8" height="8.8"/>
			<rect x="471.4" y="-37.5" fill="#020202" width="8.8" height="8.8"/>
			<rect x="480.1" y="-37.5" fill="#020202" width="8.8" height="8.8"/>
			<rect x="488.9" y="-37.5" fill="#020202" width="8.8" height="8.8"/>
			<rect x="497.7" y="-37.5" fill="#020202" width="8.8" height="8.8"/>
			<rect x="497.7" y="-28.7" fill="#020202" width="8.8" height="8.8"/>
			<rect x="506.4" y="-28.7" fill="#020202" width="8.8" height="8.8"/>
			<rect x="515.2" y="-28.7" fill="#020202" width="8.8" height="8.8"/>
			<rect x="523.9" y="-28.7" fill="#020202" width="8.8" height="8.8"/>
			<rect x="523.9" y="-19.9" fill="#020202" width="8.8" height="8.8"/>
			<rect x="532.7" y="-19.9" fill="#020202" width="8.8" height="8.8"/>
			<rect x="532.7" y="-11.2" fill="#020202" width="8.8" height="8.8"/>
			<rect x="541.5" y="-11.2" fill="#020202" width="8.8" height="8.8"/>
			<rect x="541.5" y="15.1" fill="#020202" width="8.8" height="8.8"/>
			<rect x="550.2" y="15.1" fill="#020202" width="8.8" height="8.8"/>
			<rect x="541.5" y="-2.4" fill="#020202" width="8.8" height="8.8"/>
			<rect x="541.5" y="6.3" fill="#020202" width="8.8" height="8.8"/>
			<rect x="550.2" y="23.9" fill="#020202" width="8.8" height="8.8"/>
			<rect x="550.2" y="32.6" fill="#020202" width="8.8" height="8.8"/>
			<rect x="550.2" y="41.4" fill="#020202" width="8.8" height="8.8"/>
			<rect x="453.9" y="-37.5" fill="#020202" width="8.8" height="8.8"/>
			<rect x="453.9" y="-28.7" fill="#020202" width="8.8" height="8.8"/>
			<rect x="445.1" y="-28.7" fill="#020202" width="8.8" height="8.8"/>
			<rect x="436.3" y="-28.7" fill="#020202" width="8.8" height="8.8"/>
			<rect x="427.6" y="-28.7" fill="#020202" width="8.8" height="8.8"/>
			<rect x="427.6" y="-19.9" fill="#020202" width="8.8" height="8.8"/>
			<rect x="418.8" y="-19.9" fill="#020202" width="8.8" height="8.8"/>
			<rect x="418.8" y="-11.2" fill="#020202" width="8.8" height="8.8"/>
			<rect x="410.1" y="-11.2" fill="#020202" width="8.8" height="8.8"/>
			<rect x="410.1" y="15.1" fill="#020202" width="8.8" height="8.8"/>
			<rect x="401.3" y="15.1" fill="#020202" width="8.8" height="8.8"/>
			<rect x="541.5" y="58.9" fill="#020202" width="8.8" height="8.8"/>
			<rect x="550.2" y="58.9" fill="#020202" width="8.8" height="8.8"/>
			<rect x="523.9" y="58.9" fill="#020202" width="8.8" height="8.8"/>
			<rect x="532.7" y="58.9" fill="#020202" width="8.8" height="8.8"/>
			<rect x="410.1" y="58.9" fill="#020202" width="8.8" height="8.8"/>
			<rect x="541.5" y="67.7" fill="#020202" width="8.8" height="8.8"/>
			<rect x="410.1" y="67.7" fill="#020202" width="8.8" height="8.8"/>
			<rect x="401.3" y="58.9" fill="#020202" width="8.8" height="8.8"/>
			<rect x="427.6" y="58.9" fill="#020202" width="8.8" height="8.8"/>
			<rect x="523.9" y="85.2" fill="#020202" width="8.8" height="8.8"/>
			<rect x="532.7" y="85.2" fill="#020202" width="8.8" height="8.8"/>
			<rect x="427.6" y="85.2" fill="#020202" width="8.8" height="8.8"/>
			<rect x="523.9" y="93.9" fill="#020202" width="8.8" height="8.8"/>
			<rect x="427.6" y="93.9" fill="#020202" width="8.8" height="8.8"/>
			<rect x="418.8" y="85.2" fill="#020202" width="8.8" height="8.8"/>
			<rect x="418.8" y="58.9" fill="#020202" width="8.8" height="8.8"/>
			<rect x="427.6" y="50.1" fill="#020202" width="8.8" height="8.8"/>
			<rect x="445.1" y="50.1" fill="#020202" width="8.8" height="8.8"/>
			<rect x="436.3" y="50.1" fill="#020202" width="8.8" height="8.8"/>
			<rect x="453.9" y="50.1" fill="#020202" width="8.8" height="8.8"/>
			<rect x="471.4" y="50.1" fill="#020202" width="8.8" height="8.8"/>
			<rect x="462.6" y="50.1" fill="#020202" width="8.8" height="8.8"/>
			<rect x="480.1" y="50.1" fill="#020202" width="8.8" height="8.8"/>
			<rect x="488.9" y="50.1" fill="#020202" width="8.8" height="8.8"/>
			<rect x="497.7" y="50.1" fill="#020202" width="8.8" height="8.8"/>
			<rect x="453.9" y="58.9" fill="#020202" width="8.8" height="8.8"/>
			<rect x="497.7" y="58.9" fill="#020202" width="8.8" height="8.8"/>
			<rect x="453.9" y="67.7" fill="#020202" width="8.8" height="8.8"/>
			<rect x="497.7" y="67.7" fill="#020202" width="8.8" height="8.8"/>
			<rect x="523.9" y="50.1" fill="#020202" width="8.8" height="8.8"/>
			<rect x="515.2" y="50.1" fill="#020202" width="8.8" height="8.8"/>
			<rect x="506.4" y="50.1" fill="#020202" width="8.8" height="8.8"/>
			<rect x="445.1" y="93.9" fill="#020202" width="8.8" height="8.8"/>
			<rect x="436.3" y="93.9" fill="#020202" width="8.8" height="8.8"/>
			<rect x="453.9" y="93.9" fill="#020202" width="8.8" height="8.8"/>
			<rect x="471.4" y="93.9" fill="#020202" width="8.8" height="8.8"/>
			<rect x="462.6" y="93.9" fill="#020202" width="8.8" height="8.8"/>
			<rect x="480.1" y="93.9" fill="#020202" width="8.8" height="8.8"/>
			<rect x="488.9" y="93.9" fill="#020202" width="8.8" height="8.8"/>
			<rect x="497.7" y="93.9" fill="#020202" width="8.8" height="8.8"/>
			<rect x="515.2" y="93.9" fill="#020202" width="8.8" height="8.8"/>
			<rect x="506.4" y="93.9" fill="#020202" width="8.8" height="8.8"/>
			<rect x="410.1" y="-2.4" fill="#020202" width="8.8" height="8.8"/>
			<rect x="410.1" y="6.3" fill="#020202" width="8.8" height="8.8"/>
			<rect x="418.8" y="67.7" fill="#020202" width="8.8" height="8.8"/>
			<rect x="418.8" y="76.4" fill="#020202" width="8.8" height="8.8"/>
			<rect x="532.7" y="67.7" fill="#020202" width="8.8" height="8.8"/>
			<rect x="532.7" y="76.4" fill="#020202" width="8.8" height="8.8"/>
			<rect x="401.3" y="23.9" fill="#020202" width="8.8" height="8.8"/>
			<rect x="550.2" y="50.1" fill="#020202" width="8.8" height="8.8"/>
			<rect x="401.3" y="50.1" fill="#020202" width="8.8" height="8.8"/>
			<rect x="401.3" y="32.6" fill="#020202" width="8.8" height="8.8"/>
			<rect x="401.3" y="41.4" fill="#020202" width="8.8" height="8.8"/>
			<g>
				<rect x="410.1" y="23.9" fill="#FFFFFF" width="8.8" height="8.8"/>
				<rect x="410.1" y="32.6" fill="#FFFFFF" width="8.8" height="8.8"/>
				<rect x="418.8" y="32.6" fill="#FFFFFF" width="8.8" height="8.8"/>
				<rect x="427.6" y="23.9" fill="#FFFFFF" width="8.8" height="8.8"/>
				<rect x="471.4" y="41.4" fill="#FFFFFF" width="8.8" height="8.8"/>
				<rect x="462.6" y="41.4" fill="#FFFFFF" width="8.8" height="8.8"/>
				<rect x="480.1" y="41.4" fill="#FFFFFF" width="8.8" height="8.8"/>
				<rect x="488.9" y="41.4" fill="#FFFFFF" width="8.8" height="8.8"/>
				<rect x="471.4" y="32.6" fill="#FFFFFF" width="8.8" height="8.8"/>
				<rect x="480.1" y="32.6" fill="#FFFFFF" width="8.8" height="8.8"/>
				<rect x="471.4" y="15.1" fill="#FFFFFF" width="8.8" height="8.8"/>
				<rect x="480.1" y="15.1" fill="#FFFFFF" width="8.8" height="8.8"/>
				<rect x="462.6" y="32.6" fill="#FFFFFF" width="8.8" height="8.8"/>
				<rect x="488.9" y="32.6" fill="#FFFFFF" width="8.8" height="8.8"/>
				<rect x="488.9" y="15.1" fill="#FFFFFF" width="8.8" height="8.8"/>
				<rect x="462.6" y="15.1" fill="#FFFFFF" width="8.8" height="8.8"/>
				<rect x="471.4" y="6.3" fill="#FFFFFF" width="8.8" height="8.8"/>
				<rect x="453.9" y="32.6" fill="#FFFFFF" width="8.8" height="8.8"/>
				<rect x="453.9" y="15.1" fill="#FFFFFF" width="8.8" height="8.8"/>
				<rect x="462.6" y="6.3" fill="#FFFFFF" width="8.8" height="8.8"/>
				<rect x="480.1" y="6.3" fill="#FFFFFF" width="8.8" height="8.8"/>
				<rect x="497.7" y="32.6" fill="#FFFFFF" width="8.8" height="8.8"/>
				<rect x="497.7" y="15.1" fill="#FFFFFF" width="8.8" height="8.8"/>
				<rect x="471.4" y="23.9" fill="#FFFFFF" width="8.8" height="8.8"/>
				<rect x="480.1" y="23.9" fill="#FFFFFF" width="8.8" height="8.8"/>
				<rect x="488.9" y="23.9" fill="#FFFFFF" width="8.8" height="8.8"/>
				<rect x="462.6" y="23.9" fill="#FFFFFF" width="8.8" height="8.8"/>
				<rect x="453.9" y="23.9" fill="#FFFFFF" width="8.8" height="8.8"/>
				<rect x="497.7" y="23.9" fill="#FFFFFF" width="8.8" height="8.8"/>
				<rect x="488.9" y="6.3" fill="#FFFFFF" width="8.8" height="8.8"/>
				<rect x="427.6" y="15.1" fill="#FFFFFF" width="8.8" height="8.8"/>
				<rect x="427.6" y="6.3" fill="#FFFFFF" width="8.8" height="8.8"/>
				<rect x="462.6" y="-19.9" fill="#FFFFFF" width="8.8" height="8.8"/>
				<rect x="453.9" y="-19.9" fill="#FFFFFF" width="8.8" height="8.8"/>
				<rect x="462.6" y="-28.7" fill="#FFFFFF" width="8.8" height="8.8"/>
				<rect x="445.1" y="-11.2" fill="#FFFFFF" width="8.8" height="8.8"/>
				<rect x="445.1" y="-19.9" fill="#FFFFFF" width="8.8" height="8.8"/>
				<rect x="436.3" y="-11.2" fill="#FFFFFF" width="8.8" height="8.8"/>
				<rect x="436.3" y="-19.9" fill="#FFFFFF" width="8.8" height="8.8"/>
				<rect x="488.9" y="-19.9" fill="#FFFFFF" width="8.8" height="8.8"/>
				<rect x="497.7" y="-19.9" fill="#FFFFFF" width="8.8" height="8.8"/>
				<rect x="506.4" y="-11.2" fill="#FFFFFF" width="8.8" height="8.8"/>
				<rect x="506.4" y="-19.9" fill="#FFFFFF" width="8.8" height="8.8"/>
				<rect x="515.2" y="-11.2" fill="#FFFFFF" width="8.8" height="8.8"/>
				<rect x="515.2" y="-19.9" fill="#FFFFFF" width="8.8" height="8.8"/>
				<rect x="488.9" y="-28.7" fill="#FFFFFF" width="8.8" height="8.8"/>
				<rect x="418.8" y="-2.4" fill="#FFFFFF" width="8.8" height="35"/>
				<rect x="541.5" y="32.6" fill="#FFFFFF" width="8.8" height="8.8"/>
				<rect x="541.5" y="23.9" fill="#FFFFFF" width="8.8" height="8.8"/>
				<rect x="532.7" y="32.6" fill="#FFFFFF" width="8.8" height="8.8"/>
				<rect x="523.9" y="23.9" fill="#FFFFFF" width="8.8" height="8.8"/>
				<rect x="523.9" y="15.1" fill="#FFFFFF" width="8.8" height="8.8"/>
				<rect x="523.9" y="6.3" fill="#FFFFFF" width="8.8" height="8.8"/>
				<rect x="532.7" y="-2.4" fill="#FFFFFF" width="8.8" height="35"/>
			</g>
		</g>
	</g>
</g>
<g id="Layer_2">
	<g>
		<rect x="503" y="329" fill="#FC9838" width="21" height="19"/>
		<rect x="524" y="329" fill="#FC9838" width="19" height="19"/>
		<rect x="543" y="329" fill="#FC9838" width="19" height="19"/>
		<rect x="484" y="329" fill="#FC9838" width="19" height="19"/>
		<rect x="503" y="348" fill="#FC9838" width="21" height="21"/>
		<rect x="524" y="348" fill="#FC9838" width="19" height="21"/>
		<rect x="543" y="348" fill="#FC9838" width="19" height="21"/>
		<rect x="484" y="348" fill="#FC9838" width="19" height="21"/>
		<rect x="503" y="369" fill="#D82800" width="21" height="19"/>
		<rect x="524" y="369" fill="#FC9838" width="19" height="19"/>
		<rect x="543" y="369" fill="#FC9838" width="19" height="19"/>
		<rect x="484" y="369" fill="#D82800" width="19" height="19"/>
		<rect x="385" y="369" fill="#D82800" width="21" height="19"/>
		<rect x="425" y="369" fill="#D82800" width="19" height="19"/>
		<rect x="444" y="369" fill="#D82800" width="21" height="19"/>
		<rect x="465" y="369" fill="#D82800" width="19" height="19"/>
		<rect x="269" y="486" fill="#887000" width="19" height="20"/>
		<rect x="366" y="369" fill="#D82800" width="19" height="19"/>
		<rect x="328" y="369" fill="#D82800" width="19" height="19"/>
		<rect x="347" y="369" fill="#D82800" width="19" height="19"/>
		<rect x="385" y="348" fill="#D82800" width="21" height="21"/>
		<rect x="406" y="369" fill="#D82800" width="19" height="19"/>
		<rect x="406" y="348" fill="#D82800" width="19" height="21"/>
		<rect x="425" y="348" fill="#D82800" width="19" height="21"/>
		<rect x="444" y="348" fill="#D82800" width="21" height="21"/>
		<rect x="366" y="348" fill="#D82800" width="19" height="21"/>
		<rect x="328" y="348" fill="#D82800" width="19" height="21"/>
		<rect x="347" y="348" fill="#D82800" width="19" height="21"/>
		<rect x="307" y="369" fill="#D82800" width="21" height="19"/>
		<rect x="385" y="388" fill="#887000" width="21" height="19"/>
		<rect x="366" y="388" fill="#887000" width="19" height="19"/>
		<rect x="328" y="388" fill="#887000" width="19" height="19"/>
		<rect x="347" y="388" fill="#887000" width="19" height="19"/>
		<rect x="307" y="388" fill="#887000" width="21" height="19"/>
		<rect x="503" y="388" fill="#887000" width="21" height="19"/>
		<rect x="524" y="388" fill="#887000" width="19" height="19"/>
		<rect x="543" y="388" fill="#887000" width="19" height="19"/>
		<rect x="288" y="407" fill="#887000" width="19" height="20"/>
		<rect x="307" y="407" fill="#887000" width="21" height="20"/>
		<rect x="328" y="407" fill="#887000" width="19" height="20"/>
		<rect x="288" y="427" fill="#887000" width="19" height="20"/>
		<rect x="307" y="427" fill="#887000" width="21" height="20"/>
		<rect x="328" y="427" fill="#887000" width="19" height="20"/>
		<rect x="288" y="447" fill="#887000" width="19" height="19"/>
		<rect x="307" y="447" fill="#887000" width="21" height="19"/>
		<rect x="328" y="447" fill="#887000" width="19" height="19"/>
		<rect x="269" y="506" fill="#887000" width="19" height="19"/>
		<rect x="484" y="388" fill="#887000" width="19" height="19"/>
		<rect x="503" y="407" fill="#887000" width="21" height="20"/>
		<rect x="524" y="407" fill="#887000" width="19" height="20"/>
		<rect x="543" y="407" fill="#887000" width="19" height="20"/>
		<rect x="269" y="525" fill="#FC9838" width="19" height="19"/>
		<rect x="484" y="407" fill="#FC9838" width="19" height="20"/>
		<rect x="503" y="427" fill="#FC9838" width="21" height="20"/>
		<rect x="524" y="427" fill="#FC9838" width="19" height="20"/>
		<rect x="543" y="427" fill="#887000" width="19" height="20"/>
		<rect x="444" y="388" fill="#887000" width="21" height="19"/>
		<rect x="444" y="407" fill="#887000" width="21" height="20"/>
		<rect x="269" y="544" fill="#FC9838" width="19" height="20"/>
		<rect x="484" y="427" fill="#FC9838" width="19" height="20"/>
		<rect x="307" y="486" fill="#887000" width="21" height="20"/>
		<rect x="328" y="486" fill="#887000" width="19" height="20"/>
		<rect x="347" y="486" fill="#887000" width="19" height="20"/>
		<rect x="366" y="486" fill="#887000" width="19" height="20"/>
		<rect x="385" y="486" fill="#D82800" width="21" height="20"/>
		<rect x="288" y="486" fill="#887000" width="19" height="20"/>
		<rect x="307" y="506" fill="#887000" width="21" height="19"/>
		<rect x="328" y="506" fill="#887000" width="19" height="19"/>
		<rect x="347" y="506" fill="#887000" width="19" height="19"/>
		<rect x="366" y="506" fill="#887000" width="19" height="19"/>
		<rect x="385" y="506" fill="#887000" width="21" height="19"/>
		<rect x="288" y="506" fill="#887000" width="19" height="19"/>
		<rect x="307" y="525" fill="#887000" width="21" height="19"/>
		<rect x="328" y="525" fill="#887000" width="19" height="19"/>
		<rect x="347" y="525" fill="#887000" width="19" height="19"/>
		<rect x="366" y="525" fill="#887000" width="19" height="19"/>
		<rect x="385" y="525" fill="#887000" width="21" height="19"/>
		<rect x="288" y="525" fill="#887000" width="19" height="19"/>
		<rect x="307" y="544" fill="#D82800" width="21" height="20"/>
		<rect x="328" y="544" fill="#D82800" width="19" height="20"/>
		<rect x="347" y="544" fill="#D82800" width="19" height="20"/>
		<rect x="366" y="544" fill="#887000" width="19" height="20"/>
		<rect x="385" y="544" fill="#D82800" width="21" height="20"/>
		<rect x="288" y="544" fill="#FC9838" width="19" height="20"/>
		<rect x="406" y="486" fill="#887000" width="19" height="20"/>
		<rect x="406" y="506" fill="#D82800" width="19" height="19"/>
		<rect x="406" y="525" fill="#D82800" width="19" height="19"/>
		<rect x="406" y="544" fill="#D82800" width="19" height="20"/>
		<rect x="444" y="486" fill="#887000" width="21" height="20"/>
		<rect x="465" y="486" fill="#D82800" width="19" height="20"/>
		<rect x="484" y="486" fill="#887000" width="19" height="20"/>
		<rect x="425" y="486" fill="#887000" width="19" height="20"/>
		<rect x="444" y="506" fill="#887000" width="21" height="19"/>
		<rect x="465" y="506" fill="#887000" width="19" height="19"/>
		<rect x="484" y="506" fill="#D82800" width="19" height="19"/>
		<rect x="425" y="506" fill="#887000" width="19" height="19"/>
		<rect x="444" y="525" fill="#D82800" width="21" height="19"/>
		<rect x="465" y="525" fill="#D82800" width="19" height="19"/>
		<rect x="484" y="525" fill="#D82800" width="19" height="19"/>
		<rect x="425" y="525" fill="#D82800" width="19" height="19"/>
		<rect x="444" y="544" fill="#D82800" width="21" height="20"/>
		<rect x="465" y="544" fill="#D82800" width="19" height="20"/>
		<rect x="484" y="544" fill="#FC9838" width="19" height="20"/>
		<rect x="425" y="544" fill="#FC9838" width="19" height="20"/>
		<rect x="269" y="564" fill="#FC9838" width="19" height="20"/>
		<rect x="269" y="584" fill="#887000" width="19" height="19"/>
		<rect x="269" y="603" fill="#887000" width="19" height="20"/>
		<rect x="269" y="623" fill="#887000" width="19" height="19"/>
		<rect x="249" y="603" fill="#887000" width="20" height="20"/>
		<rect x="249" y="623" fill="#887000" width="20" height="19"/>
		<rect x="307" y="564" fill="#887000" width="21" height="20"/>
		<rect x="328" y="564" fill="#D82800" width="19" height="20"/>
		<rect x="347" y="564" fill="#D82800" width="19" height="20"/>
		<rect x="366" y="564" fill="#D82800" width="19" height="20"/>
		<rect x="385" y="564" fill="#D82800" width="21" height="20"/>
		<rect x="288" y="564" fill="#887000" width="19" height="20"/>
		<rect x="229" y="525" fill="#FC9838" width="20" height="19"/>
		<rect x="229" y="544" fill="#FC9838" width="20" height="20"/>
		<rect x="249" y="506" fill="#887000" width="20" height="19"/>
		<rect x="249" y="525" fill="#FC9838" width="20" height="19"/>
		<rect x="249" y="544" fill="#FC9838" width="20" height="20"/>
		<rect x="249" y="564" fill="#FC9838" width="20" height="20"/>
		<rect x="307" y="584" fill="#887000" width="21" height="19"/>
		<rect x="328" y="584" fill="#887000" width="19" height="19"/>
		<rect x="347" y="584" fill="#D82800" width="19" height="19"/>
		<rect x="366" y="584" fill="#D82800" width="19" height="19"/>
		<rect x="385" y="584" fill="#D82800" width="21" height="19"/>
		<rect x="288" y="584" fill="#887000" width="19" height="19"/>
		<rect x="307" y="603" fill="#887000" width="21" height="20"/>
		<rect x="328" y="603" fill="#D82800" width="19" height="20"/>
		<rect x="347" y="603" fill="#D82800" width="19" height="20"/>
		<rect x="366" y="603" fill="#D82800" width="19" height="20"/>
		<rect x="385" y="603" fill="#D82800" width="21" height="20"/>
		<rect x="288" y="603" fill="#887000" width="19" height="20"/>
		<rect x="307" y="623" fill="#D82800" width="21" height="19"/>
		<rect x="328" y="623" fill="#D82800" width="19" height="19"/>
		<rect x="347" y="623" fill="#D82800" width="19" height="19"/>
		<rect x="366" y="623" fill="#D82800" width="19" height="19"/>
		<rect x="385" y="623" fill="#D82800" width="21" height="19"/>
		<rect x="406" y="564" fill="#D82800" width="19" height="20"/>
		<rect x="406" y="584" fill="#D82800" width="19" height="19"/>
		<rect x="406" y="603" fill="#D82800" width="19" height="20"/>
		<rect x="444" y="564" fill="#D82800" width="21" height="20"/>
		<rect x="465" y="564" fill="#D82800" width="19" height="20"/>
		<rect x="484" y="564" fill="#D82800" width="19" height="20"/>
		<rect x="425" y="564" fill="#D82800" width="19" height="20"/>
		<rect x="444" y="584" fill="#D82800" width="21" height="19"/>
		<rect x="465" y="584" fill="#D82800" width="19" height="19"/>
		<rect x="484" y="584" fill="#D82800" width="19" height="19"/>
		<rect x="425" y="584" fill="#D82800" width="19" height="19"/>
		<rect x="444" y="603" fill="#D82800" width="21" height="20"/>
		<rect x="425" y="603" fill="#D82800" width="19" height="20"/>
		<rect x="503" y="564" fill="#D82800" width="21" height="20"/>
		<rect x="503" y="544" fill="#D82800" width="21" height="20"/>
		<rect x="503" y="584" fill="#D82800" width="21" height="19"/>
		<rect x="524" y="506" fill="#887000" width="19" height="19"/>
		<rect x="524" y="525" fill="#887000" width="19" height="19"/>
		<rect x="524" y="544" fill="#887000" width="19" height="20"/>
		<rect x="524" y="564" fill="#887000" width="19" height="20"/>
		<rect x="524" y="584" fill="#887000" width="19" height="19"/>
		<rect x="543" y="525" fill="#887000" width="19" height="19"/>
		<rect x="543" y="506" fill="#887000" width="19" height="19"/>
		<rect x="543" y="544" fill="#887000" width="19" height="20"/>
		<rect x="543" y="564" fill="#887000" width="19" height="20"/>
		<rect x="543" y="584" fill="#887000" width="19" height="19"/>
		<rect x="347" y="407" fill="#FC9838" width="19" height="20"/>
		<rect x="347" y="427" fill="#FC9838" width="19" height="20"/>
		<rect x="347" y="447" fill="#887000" width="19" height="19"/>
		<rect x="406" y="388" fill="#FC9838" width="19" height="19"/>
		<rect x="425" y="388" fill="#FC9838" width="19" height="19"/>
		<rect x="465" y="388" fill="#FC9838" width="19" height="19"/>
		<rect x="385" y="407" fill="#FC9838" width="21" height="20"/>
		<rect x="406" y="407" fill="#FC9838" width="19" height="20"/>
		<rect x="425" y="407" fill="#FC9838" width="19" height="20"/>
		<rect x="465" y="407" fill="#FC9838" width="19" height="20"/>
		<rect x="366" y="407" fill="#887000" width="19" height="20"/>
		<rect x="385" y="427" fill="#887000" width="21" height="20"/>
		<rect x="406" y="427" fill="#FC9838" width="19" height="20"/>
		<rect x="425" y="427" fill="#FC9838" width="19" height="20"/>
		<rect x="444" y="427" fill="#FC9838" width="21" height="20"/>
		<rect x="465" y="427" fill="#887000" width="19" height="20"/>
		<rect x="366" y="427" fill="#887000" width="19" height="20"/>
		<rect x="385" y="447" fill="#FC9838" width="21" height="19"/>
		<rect x="406" y="447" fill="#FC9838" width="19" height="19"/>
		<rect x="425" y="447" fill="#FC9838" width="19" height="19"/>
		<rect x="444" y="447" fill="#887000" width="21" height="19"/>
		<rect x="465" y="447" fill="#887000" width="19" height="19"/>
		<rect x="484" y="447" fill="#887000" width="19" height="19"/>
		<rect x="503" y="447" fill="#887000" width="21" height="19"/>
		<rect x="503" y="466" fill="#887000" width="21" height="20"/>
		<rect x="524" y="447" fill="#887000" width="19" height="19"/>
		<rect x="366" y="447" fill="#FC9838" width="19" height="19"/>
		<rect x="328" y="466" fill="#FC9838" width="19" height="20"/>
		<rect x="347" y="466" fill="#FC9838" width="19" height="20"/>
		<rect x="385" y="466" fill="#FC9838" width="21" height="20"/>
		<rect x="406" y="466" fill="#FC9838" width="19" height="20"/>
		<rect x="425" y="466" fill="#FC9838" width="19" height="20"/>
		<rect x="444" y="466" fill="#FC9838" width="21" height="20"/>
		<rect x="465" y="466" fill="#FC9838" width="19" height="20"/>
		<rect x="484" y="466" fill="#FC9838" width="19" height="20"/>
		<rect x="366" y="466" fill="#FC9838" width="19" height="20"/>
	</g>
</g>
</svg>
