<?xml version="1.0" encoding="utf-8"?>
<!-- Generator: Adobe Illustrator 18.0.0, SVG Export Plug-In . SVG Version: 6.00 Build 0)  -->
<!DOCTYPE svg PUBLIC "-//W3C//DTD SVG 1.1//EN" "http://www.w3.org/Graphics/SVG/1.1/DTD/svg11.dtd">
<svg version="1.1" id="Layer_1" xmlns="http://www.w3.org/2000/svg" xmlns:xlink="http://www.w3.org/1999/xlink" x="0px" y="0px"
	 viewBox="0 0 125 75" enable-background="new 0 0 125 75" xml:space="preserve">
<g id="Colour_Logo">
	<path fill="#FFFDFD" d="M70,41.2c-2.5,5.5-9.4,5.2-11.5-0.5c-0.1-0.3-0.2-0.7-0.3-1c-0.4-0.1-0.8-0.1-1.2-0.2
		c-0.4-0.1-0.8-0.1-1.2-0.2c-0.4-0.1-0.8-0.1-1.2-0.2c-0.4-0.1-0.8-0.1-1.1-0.2c-2.1,6.4-7.6,3.7-9.5-0.4c-0.7-1.4-1.5-4.2,0-7
		c-0.6-1.4-1.4-3.4-1.9-4.8c-4.3,1.3-5.4-5.5-2.7-10.2c2.6-4.4,5.3-3.2,6.2-2.3c2.1,2.1,1.6,7-0.9,10.4c0.6,1.5,1.3,3.5,1.9,4.9
		c0.8-0.1,4.9-0.6,6.8,5.4c0.4,0.1,0.8,0.1,1.2,0.2c0.4,0.1,0.8,0.1,1.2,0.2c0.4,0.1,0.8,0.1,1.2,0.2c0.4,0.1,0.8,0.1,1.2,0.2
		c3-6.2,10.1-4.4,11.8,0.2C70.9,37.6,70.8,39.5,70,41.2"/>
	<path fill="#FFFDFD" d="M82.6,27c-2.3,5.8-10,5.9-12.5,0.1c-0.3-0.6-0.5-1.6-0.6-2.2c-0.5-0.1-0.9-0.2-1.4-0.3
		c-0.5-0.1-0.9-0.2-1.4-0.2c-0.5-0.1-0.9-0.2-1.4-0.2c-0.5-0.1-0.9-0.1-1.4-0.2c-4,6.9-11.4,4.6-12.6-0.8C49.8,16.6,57,11.3,62.1,15
		c2,1.4,2.4,3.6,2.6,4.6c0.5,0.1,0.9,0.1,1.4,0.2c0.5,0.1,0.9,0.1,1.4,0.2s0.9,0.2,1.4,0.2c0.5,0.1,0.9,0.2,1.4,0.2
		c0.6-1.1,1.1-1.7,2-2.4c-0.6-1.6-1.4-3.6-2-5.2c-0.6,0-6,0-6.8-5.2c-0.4,0-0.8-0.1-1.3-0.1c-0.4,0-0.8-0.1-1.3-0.1
		s-0.8-0.1-1.2-0.1c-0.4,0-0.8-0.1-1.2-0.1c-4.2,5.2-10.1,4.7-10.6,1.3c-0.6-4.3,6.8-9.4,10.5-7.2c1.3,0.8,1.3,2.1,1.3,2.8
		c0.4,0,0.8,0,1.2,0.1c0.4,0,0.8,0.1,1.2,0.1c0.4,0,0.8,0.1,1.2,0.1c0.4,0,0.8,0.1,1.2,0.1c0.9-1.1,1.9-1.8,3.1-2.2
		c2.6-0.9,7.3-0.3,8.6,3.9c0.5,1.9-0.2,3.9-2.1,5.3c0.6,1.5,1.5,3.5,2.1,5.1C81.1,16.7,84.5,22.1,82.6,27"/>
	<g id="TEXT">
		<path fill="#FFFDFD" d="M13.8,64.4c-0.4,2.9-1.8,4-5,4H5.1c-1.9,0-3-0.4-3.9-1.2c-0.9-0.8-1.2-1.9-1.2-3.8v-3.4
			c0-1.9,0.3-3,1.2-3.8c0.9-0.9,2-1.2,3.9-1.2h3.7c3.3,0,4.7,1.1,5,4l-2.7,0.4c-0.1-0.7-0.2-1.1-0.5-1.4c-0.4-0.4-0.9-0.5-2.5-0.5
			H5.8c-1.6,0-2.1,0.1-2.5,0.5c-0.4,0.4-0.5,1-0.5,2.5v2.3c0,1.6,0.1,2.1,0.5,2.5c0.4,0.4,0.9,0.5,2.5,0.5h2.3
			c1.6,0,2.1-0.1,2.5-0.5c0.3-0.3,0.4-0.7,0.5-1.4L13.8,64.4z"/>
		<path fill="#FFFDFD" d="M30.1,63.4c0,1.9-0.3,3-1.2,3.8c-0.9,0.9-2,1.2-3.9,1.2h-3.7c-1.9,0-3-0.4-3.9-1.2
			c-0.9-0.8-1.2-1.9-1.2-3.8v-3.4c0-1.9,0.3-3,1.2-3.8c0.9-0.9,2-1.2,3.9-1.2H25c1.9,0,3,0.4,3.9,1.2c0.9,0.8,1.2,1.9,1.2,3.8V63.4z
			 M19,62.9c0,1.6,0.1,2.1,0.5,2.5c0.4,0.4,0.9,0.5,2.5,0.5h2.3c1.6,0,2.1-0.1,2.5-0.5c0.4-0.4,0.5-1,0.5-2.5v-2.3
			c0-1.6-0.1-2.1-0.5-2.5c-0.4-0.4-0.9-0.5-2.5-0.5H22c-1.6,0-2.1,0.1-2.5,0.5c-0.4,0.4-0.5,1-0.5,2.5V62.9z"/>
		<path fill="#FFFDFD" d="M52.4,68.5v-7.9c0-1.6-0.1-2.1-0.5-2.5c-0.4-0.4-0.9-0.5-2.3-0.5h-1.1c-1.4,0-2,0.1-2.3,0.5
			c-0.4,0.4-0.5,1-0.5,2.5v7.9h-2.7v-7.9c0-1.6-0.1-2.1-0.5-2.5c-0.4-0.4-0.9-0.5-2.5-0.5h-3.8v10.9h-2.7V55h6.7
			c2.1,0,3.2,0.4,4.1,1.5c0.9-1.1,2-1.5,4.1-1.5H50c1.9,0,3,0.4,3.9,1.2c0.9,0.8,1.2,1.9,1.2,3.8v8.4H52.4z"/>
		<path fill="#FFFDFD" d="M66.8,55c1.9,0,3,0.4,3.9,1.2c0.9,0.8,1.2,1.9,1.2,3.8v3.4c0,1.9-0.3,3-1.2,3.8c-0.9,0.9-2,1.2-3.9,1.2
			h-5.7v5h-2.7V55H66.8z M66.1,65.9c1.6,0,2.1-0.1,2.5-0.5c0.4-0.4,0.5-1,0.5-2.5v-2.3c0-1.6-0.1-2.1-0.5-2.5
			c-0.4-0.4-0.9-0.5-2.5-0.5h-5v8.4L66.1,65.9L66.1,65.9z"/>
		<path fill="#FFFDFD" d="M88.5,64.5c-0.5,2.9-1.8,4-5,4h-3.7c-1.9,0-3-0.4-3.9-1.2s-1.2-1.9-1.2-3.8v-3.4c0-1.9,0.3-3,1.2-3.8
			c0.9-0.9,2-1.2,3.9-1.2h3.7c1.9,0,3,0.4,3.9,1.2c0.9,0.8,1.2,1.9,1.2,3.9v2.5H77.4V63c0,1.6,0.1,2.1,0.5,2.5
			c0.4,0.4,0.9,0.5,2.5,0.5h2.3c1.6,0,2.1-0.1,2.5-0.5c0.3-0.3,0.4-0.7,0.5-1.3L88.5,64.5z M85.8,60.2c0-2.4-0.4-2.8-3-2.8h-2.3
			c-2.7,0-3,0.3-3,2.8H85.8z"/>
		<path fill="#FFFDFD" d="M108.9,68.5c-1.9,0-3-0.4-3.9-1.2c-0.9-0.8-1.2-1.9-1.2-3.8v-3.4c0-1.9,0.3-3,1.2-3.8
			c0.9-0.9,2-1.2,3.9-1.2h8.4v13.4H108.9z M109.6,57.5c-1.6,0-2.1,0.1-2.5,0.5c-0.4,0.4-0.5,1-0.5,2.5v2.3c0,1.6,0.1,2.1,0.5,2.5
			c0.4,0.4,0.9,0.5,2.5,0.5h5v-8.4L109.6,57.5L109.6,57.5z"/>
		<path fill="#FFFDFD" d="M98.2,65.9c-2.5,0.1-3-0.4-3-2.5v-5.9h5.7l0.3-2.5h-6.1v-3.4h-2.7V55h-1.8v2.5h1.8v5.9
			c0,1.9,0.3,3,1.2,3.8c0.9,0.9,2,1.2,3.9,1.2h4.5v-2.5C102,65.9,98.2,65.9,98.2,65.9z"/>
		<g>
			<path fill="#FFFDFD" d="M120.6,57.5h-0.4v-2.1h-1.1V55h2.5v0.4h-1.1V57.5z"/>
			<path fill="#FFFDFD" d="M124.5,55h0.4v2.5h-0.4v-2l-1,1l-1-1v2h-0.4V55h0.4l1,1L124.5,55z"/>
		</g>
	</g>
</g>
</svg>
