<?xml version="1.0" encoding="utf-8"?>
<!-- Generator: Adobe Illustrator 17.0.0, SVG Export Plug-In . SVG Version: 6.00 Build 0)  -->
<!DOCTYPE svg PUBLIC "-//W3C//DTD SVG 1.1//EN" "http://www.w3.org/Graphics/SVG/1.1/DTD/svg11.dtd">
<svg version="1.1" id="Layer_1" xmlns="http://www.w3.org/2000/svg" xmlns:xlink="http://www.w3.org/1999/xlink" x="0px" y="0px"
	 width="125px" height="75px" viewBox="0 0 125 75" enable-background="new 0 0 125 75" xml:space="preserve">
<g id="Colour_Logo">
	<path fill="#EC1C24" d="M69.995,41.205c-2.531,5.466-9.399,5.188-11.483-0.464c-0.109-0.295-0.206-0.706-0.294-1.008
		c-0.394-0.062-0.787-0.122-1.178-0.181c-0.391-0.059-0.78-0.117-1.167-0.174c-0.387-0.056-0.771-0.112-1.154-0.166
		c-0.382-0.054-0.762-0.107-1.139-0.158c-2.111,6.42-7.57,3.678-9.465-0.432c-0.66-1.43-1.53-4.246,0.046-7.039
		c-0.601-1.433-1.374-3.357-1.914-4.814c-4.297,1.288-5.426-5.468-2.695-10.16c2.625-4.419,5.304-3.165,6.215-2.255
		c2.068,2.068,1.649,6.962-0.876,10.38c0.554,1.494,1.323,3.476,1.934,4.948c0.804-0.142,4.911-0.552,6.756,5.388
		c0.399,0.051,0.801,0.103,1.205,0.157c0.405,0.054,0.813,0.11,1.222,0.166c0.41,0.057,0.822,0.116,1.236,0.176
		c0.414,0.06,0.831,0.122,1.248,0.184c2.984-6.188,10.067-4.41,11.764,0.201C70.876,37.64,70.783,39.503,69.995,41.205"/>
	<path fill="#0080C5" d="M82.559,26.975c-2.31,5.805-10.037,5.858-12.528,0.085c-0.275-0.637-0.462-1.555-0.587-2.238
		c-0.465-0.085-0.93-0.169-1.396-0.251c-0.466-0.082-0.932-0.163-1.398-0.241c-0.466-0.079-0.932-0.156-1.397-0.231
		c-0.466-0.075-0.931-0.149-1.394-0.22c-4.045,6.939-11.418,4.552-12.617-0.812C49.805,16.641,57,11.264,62.085,14.963
		c1.958,1.425,2.359,3.55,2.551,4.572c0.465,0.07,0.931,0.142,1.398,0.215c0.466,0.074,0.933,0.149,1.4,0.227
		c0.467,0.078,0.934,0.157,1.401,0.239c0.467,0.081,0.933,0.165,1.399,0.249c0.59-1.087,1.083-1.679,2.026-2.435
		c-0.581-1.56-1.365-3.636-1.966-5.187c-0.61,0.014-5.988-0.017-6.818-5.172c-0.425-0.047-0.85-0.092-1.273-0.134
		c-0.422-0.042-0.842-0.082-1.26-0.119c-0.418-0.037-0.834-0.072-1.247-0.104c-0.413-0.032-0.824-0.062-1.232-0.089
		c-4.234,5.154-10.149,4.686-10.636,1.345c-0.621-4.267,6.848-9.39,10.515-7.212c1.283,0.762,1.325,2.074,1.348,2.779
		c0.388,0.023,0.779,0.048,1.172,0.077c0.393,0.028,0.789,0.059,1.186,0.092c0.398,0.033,0.797,0.069,1.198,0.107
		c0.402,0.038,0.805,0.079,1.209,0.121c0.95-1.082,1.933-1.796,3.075-2.19c2.58-0.857,7.293-0.343,8.583,3.945
		c0.482,1.873-0.225,3.924-2.06,5.339c0.629,1.517,1.451,3.546,2.05,5.075C81.126,16.71,84.504,22.087,82.559,26.975"/>
	<g id="TEXT">
		<path fill="#230004" d="M13.847,64.426c-0.378,2.925-1.765,4.034-5.043,4.034H5.098c-1.866,0-2.975-0.353-3.858-1.21
			c-0.857-0.832-1.185-1.917-1.185-3.833v-3.354c0-1.916,0.327-3.001,1.185-3.833c0.883-0.857,1.992-1.21,3.858-1.21h3.706
			c3.278,0,4.665,1.11,5.043,4.034l-2.698,0.353c-0.076-0.706-0.202-1.084-0.505-1.362c-0.429-0.403-0.907-0.504-2.521-0.504H5.778
			c-1.639,0-2.118,0.101-2.521,0.504c-0.403,0.429-0.504,0.958-0.504,2.522v2.345c0,1.563,0.101,2.093,0.504,2.522
			c0.403,0.403,0.883,0.504,2.521,0.504h2.345c1.614,0,2.093-0.101,2.521-0.504c0.303-0.278,0.429-0.655,0.505-1.362L13.847,64.426z
			"/>
		<path fill="#230004" d="M30.085,63.417c0,1.916-0.327,3.001-1.185,3.833c-0.882,0.857-1.992,1.21-3.858,1.21h-3.706
			c-1.866,0-2.975-0.353-3.858-1.21c-0.857-0.832-1.185-1.917-1.185-3.833v-3.354c0-1.916,0.328-3.001,1.185-3.833
			c0.882-0.857,1.992-1.21,3.858-1.21h3.706c1.866,0,2.975,0.353,3.858,1.21c0.858,0.832,1.185,1.917,1.185,3.833V63.417z
			 M18.991,62.913c0,1.563,0.101,2.093,0.505,2.522c0.403,0.403,0.882,0.504,2.521,0.504h2.345c1.639,0,2.118-0.101,2.521-0.504
			c0.403-0.429,0.505-0.958,0.505-2.522v-2.345c0-1.563-0.101-2.093-0.505-2.522c-0.403-0.403-0.882-0.504-2.521-0.504h-2.345
			c-1.639,0-2.118,0.101-2.521,0.504c-0.403,0.429-0.505,0.958-0.505,2.522V62.913z"/>
		<path fill="#230004" d="M52.375,68.46v-7.892c0-1.563-0.101-2.093-0.504-2.522c-0.378-0.378-0.908-0.504-2.345-0.504h-1.109
			c-1.437,0-1.967,0.126-2.345,0.504c-0.403,0.429-0.504,0.958-0.504,2.522v7.892h-2.698v-7.892c0-1.563-0.101-2.093-0.504-2.522
			c-0.403-0.403-0.883-0.504-2.522-0.504h-3.782V68.46h-2.698V55.021h6.732c2.093,0,3.177,0.403,4.135,1.513
			c0.933-1.11,2.017-1.513,4.11-1.513h1.69c1.866,0,2.975,0.353,3.858,1.21c0.857,0.832,1.185,1.917,1.185,3.833v8.396H52.375z"/>
		<path fill="#230004" d="M66.824,55.021c1.866,0,2.975,0.353,3.858,1.21c0.857,0.832,1.185,1.917,1.185,3.833v3.354
			c0,1.916-0.328,3.001-1.185,3.833c-0.883,0.857-1.992,1.21-3.858,1.21h-5.699v5.043h-2.698V55.021H66.824z M66.143,65.939
			c1.639,0,2.118-0.101,2.522-0.504c0.403-0.429,0.504-0.958,0.504-2.522v-2.345c0-1.563-0.101-2.093-0.504-2.522
			c-0.403-0.403-0.883-0.504-2.522-0.504h-5.018v8.396H66.143z"/>
		<path fill="#230004" d="M88.476,64.501c-0.454,2.874-1.815,3.959-5.043,3.959h-3.707c-1.866,0-3.001-0.353-3.858-1.21
			c-0.857-0.857-1.185-1.942-1.185-3.833v-3.354c0-1.916,0.328-3.001,1.185-3.833c0.857-0.857,1.992-1.21,3.858-1.21h3.707
			c1.866,0,3,0.353,3.858,1.185c0.857,0.832,1.185,1.866,1.185,3.858v2.522H77.382v0.403c0,1.563,0.101,2.093,0.504,2.521
			c0.378,0.403,0.882,0.505,2.522,0.505h2.345c1.614,0,2.093-0.101,2.522-0.505c0.302-0.277,0.429-0.655,0.504-1.336L88.476,64.501z
			 M85.778,60.215c0-2.446-0.353-2.774-3.026-2.774h-2.345c-2.673,0-3.026,0.328-3.026,2.774H85.778z"/>
		<path fill="#230004" d="M108.888,68.46c-1.866,0-2.975-0.353-3.858-1.21c-0.857-0.832-1.185-1.917-1.185-3.833v-3.354
			c0-1.916,0.328-3.001,1.185-3.833c0.882-0.857,1.992-1.21,3.858-1.21h8.396V68.46H108.888z M109.569,57.543
			c-1.639,0-2.118,0.101-2.521,0.504c-0.403,0.429-0.505,0.958-0.505,2.522v2.345c0,1.563,0.101,2.093,0.505,2.522
			c0.403,0.403,0.882,0.504,2.521,0.504h5.018v-8.396H109.569z"/>
		<path fill="#230004" d="M98.159,65.939c-2.471,0.051-3.026-0.403-3.026-2.521v-5.875h5.723l0.328-2.522h-6.051v-3.379h-2.698
			v3.379h-1.841v2.522h1.841v5.875c0,1.916,0.328,3.001,1.185,3.833c0.883,0.857,1.992,1.21,3.858,1.21h4.541v-2.522H98.159z"/>
		<g>
			<path fill="#230004" d="M120.606,57.536h-0.403V55.4h-1.055v-0.376h2.512V55.4h-1.054V57.536z"/>
			<path fill="#230004" d="M124.508,55.016h0.403v2.52h-0.403V55.54l-1.01,1.005l-1.009-1.005v1.996h-0.403v-2.52h0.403l1.009,1.013
				L124.508,55.016z"/>
		</g>
	</g>
</g>
</svg>
