<?xml version="1.0" encoding="utf-8"?>
<!-- Generator: Adobe Illustrator 17.0.0, SVG Export Plug-In . SVG Version: 6.00 Build 0)  -->
<!DOCTYPE svg PUBLIC "-//W3C//DTD SVG 1.0//EN" "http://www.w3.org/TR/2001/REC-SVG-20010904/DTD/svg10.dtd">
<svg version="1.0" id="Layer_1" xmlns="http://www.w3.org/2000/svg" xmlns:xlink="http://www.w3.org/1999/xlink" x="0px" y="0px"
	 width="157px" height="80px" viewBox="0 0 157 80" enable-background="new 0 0 157 80" xml:space="preserve">
<g>
	<path fill="#BE1818" d="M17.97,55.143c-0.776,0-1.519-0.153-2.209-0.455c-2.222-0.972-3.568-3.273-3.79-6.48
		c-0.184-2.655,0.43-5.753,1.729-8.723c2.424-5.539,6.585-9.261,10.354-9.261c0.776,0,1.519,0.153,2.209,0.455
		c2.222,0.972,3.568,3.274,3.79,6.48c0.183,2.656-0.431,5.754-1.729,8.723C25.901,51.421,21.74,55.143,17.97,55.143z M24.054,34.979
		c-1.288,0-4.085,2.038-5.998,6.412c-0.983,2.247-1.472,4.612-1.342,6.489c0.1,1.45,0.551,2.276,0.952,2.452
		c0.087,0.038,0.186,0.057,0.304,0.057c1.288,0,4.085-2.038,5.997-6.412c0.983-2.247,1.472-4.612,1.342-6.49
		c-0.1-1.45-0.55-2.276-0.952-2.452C24.271,34.997,24.172,34.979,24.054,34.979z"/>
</g>
<g>
	<path fill="#BE1818" d="M15.745,64.183c-5.789,0.001-9.989-2.956-10.196-3.104c-1.067-0.765-1.312-2.25-0.547-3.317
		c0.765-1.067,2.251-1.311,3.317-0.546c0.035,0.024,4.49,3.098,9.896,1.957c4.237-0.894,8.055-4.115,11.346-9.573
		c3.482-5.773,4.594-11.026,3.307-15.615c-1.756-6.257-7.366-9.249-7.423-9.278c-1.164-0.608-1.615-2.044-1.007-3.208
		c0.608-1.164,2.043-1.614,3.208-1.007c0.305,0.159,7.495,3.994,9.799,12.209c1.656,5.903,0.373,12.414-3.812,19.355
		c-4.02,6.665-8.904,10.631-14.517,11.787C17.948,64.081,16.819,64.183,15.745,64.183z"/>
</g>
<g>
	<path fill="#BE1818" d="M15.624,73.3C8.021,73.3,2.408,69.864,2.119,69.684c-1.114-0.695-1.454-2.161-0.759-3.275
		c0.695-1.113,2.162-1.453,3.275-0.758c0.066,0.04,7.26,4.383,15.645,2.342c6.094-1.485,11.415-5.951,15.815-13.274
		c5.218-8.685,6.748-16.644,4.548-23.658c-3.39-10.803-14.514-15.901-14.626-15.951c-1.198-0.537-1.733-1.944-1.196-3.142
		c0.538-1.198,1.944-1.734,3.142-1.196c0.537,0.241,13.193,6.045,17.216,18.865c2.625,8.366,0.94,17.629-5.009,27.529
		c-5.095,8.48-11.433,13.682-18.837,15.462C19.35,73.106,17.431,73.3,15.624,73.3z"/>
</g>
<g>
	<path fill="#BE1818" d="M44.59,62.267c-0.422,0-0.85-0.112-1.236-0.349c-1.121-0.684-1.475-2.147-0.79-3.268
		c8.388-13.74,8.198-25.529,2.951-36.212c-3.895-7.93-10.796-11.3-10.859-11.339c-1.116-0.691-1.461-2.155-0.771-3.272
		c0.691-1.117,2.154-1.461,3.273-0.771c0.305,0.189,8.134,4.142,12.625,13.286c7.488,15.244,3.228,30.322-3.16,40.786
		C46.173,61.862,45.391,62.267,44.59,62.267z"/>
</g>
<g>
	<path fill="#BE1818" d="M75.078,12.429H67.29v3.125h7.149v2.556H67.29v3.784h8.148v2.646H64.285V9.823h10.794V12.429z"/>
	<path fill="#BE1818" d="M80.44,13.657v6.56c0,0.619,0.073,1.085,0.219,1.398c0.258,0.553,0.765,0.829,1.52,0.829
		c0.967,0,1.63-0.393,1.987-1.178c0.186-0.426,0.279-0.989,0.279-1.688v-5.921h2.886v10.884h-2.766v-1.538
		c-0.027,0.033-0.093,0.133-0.199,0.299c-0.106,0.167-0.232,0.313-0.378,0.439c-0.445,0.4-0.875,0.673-1.29,0.819
		c-0.415,0.146-0.901,0.22-1.458,0.22c-1.606,0-2.688-0.579-3.246-1.737c-0.312-0.639-0.468-1.581-0.468-2.826v-6.56H80.44z"/>
	<path fill="#BE1818" d="M96.142,13.403c0.037,0.003,0.118,0.008,0.244,0.015v2.915c-0.179-0.02-0.34-0.033-0.479-0.04
		c-0.139-0.007-0.253-0.01-0.34-0.01c-1.144,0-1.913,0.373-2.306,1.118c-0.219,0.419-0.33,1.065-0.33,1.937v5.202h-2.865V13.657
		h2.716v1.897c0.439-0.725,0.822-1.221,1.149-1.488c0.532-0.446,1.225-0.669,2.077-0.669C96.06,13.398,96.105,13.4,96.142,13.403z"
		/>
	<path fill="#BE1818" d="M107.13,23.21c-0.918,1.134-2.313,1.701-4.183,1.701c-1.871,0-3.265-0.567-4.184-1.701
		c-0.919-1.134-1.378-2.499-1.378-4.096c0-1.569,0.459-2.93,1.378-4.08c0.919-1.151,2.313-1.726,4.184-1.726
		c1.871,0,3.265,0.575,4.183,1.726c0.919,1.151,1.378,2.511,1.378,4.08C108.508,20.711,108.049,22.076,107.13,23.21z
		 M104.854,21.637c0.446-0.592,0.669-1.433,0.669-2.523c0-1.09-0.223-1.929-0.669-2.517c-0.446-0.588-1.085-0.882-1.918-0.882
		s-1.472,0.294-1.922,0.882c-0.449,0.588-0.674,1.427-0.674,2.517c0,1.09,0.225,1.931,0.674,2.523
		c0.45,0.591,1.09,0.887,1.922,0.887S104.407,22.228,104.854,21.637z"/>
	<path fill="#BE1818" d="M119.698,14.826c0.888,0.939,1.331,2.317,1.331,4.134c0,1.917-0.434,3.378-1.301,4.383
		c-0.868,1.005-1.985,1.508-3.352,1.508c-0.871,0-1.595-0.216-2.171-0.649c-0.315-0.24-0.623-0.589-0.925-1.048v5.672h-2.815V13.657
		h2.726v1.608c0.308-0.472,0.636-0.845,0.984-1.118c0.637-0.486,1.393-0.729,2.272-0.729
		C117.727,13.418,118.81,13.887,119.698,14.826z M117.514,16.873c-0.387-0.645-1.014-0.968-1.882-0.968
		c-1.042,0-1.758,0.489-2.148,1.468c-0.202,0.519-0.303,1.178-0.303,1.977c0,1.265,0.34,2.153,1.018,2.666
		c0.404,0.3,0.881,0.449,1.433,0.449c0.8,0,1.411-0.306,1.832-0.919c0.42-0.612,0.63-1.428,0.63-2.446
		C118.094,18.26,117.901,17.518,117.514,16.873z"/>
	<path fill="#BE1818" d="M130.129,13.878c0.759,0.34,1.386,0.877,1.88,1.61c0.446,0.647,0.735,1.397,0.867,2.25
		c0.077,0.5,0.108,1.22,0.094,2.16h-7.927c0.044,1.092,0.424,1.857,1.138,2.296c0.435,0.273,0.958,0.409,1.569,0.409
		c0.648,0,1.175-0.167,1.58-0.499c0.221-0.18,0.416-0.429,0.586-0.749h2.905c-0.077,0.646-0.428,1.301-1.055,1.967
		c-0.975,1.058-2.339,1.588-4.094,1.588c-1.449,0-2.727-0.446-3.834-1.339c-1.107-0.893-1.66-2.345-1.66-4.357
		c0-1.885,0.5-3.331,1.499-4.337c0.999-1.006,2.297-1.509,3.892-1.509C128.516,13.368,129.369,13.538,130.129,13.878z
		 M125.871,16.336c-0.402,0.414-0.655,0.976-0.758,1.684h4.902c-0.052-0.755-0.304-1.328-0.758-1.72s-1.016-0.587-1.688-0.587
		C126.84,15.714,126.274,15.922,125.871,16.336z"/>
	<path fill="#BE1818" d="M138.72,17.921c0.53-0.066,0.908-0.15,1.136-0.25c0.409-0.173,0.614-0.443,0.614-0.809
		c0-0.446-0.157-0.754-0.471-0.924c-0.314-0.17-0.775-0.254-1.382-0.254c-0.681,0-1.164,0.166-1.447,0.499
		c-0.203,0.246-0.337,0.579-0.405,0.999h-2.746c0.06-0.952,0.328-1.734,0.803-2.346c0.755-0.959,2.052-1.438,3.891-1.438
		c1.197,0,2.259,0.236,3.189,0.709c0.929,0.473,1.394,1.365,1.394,2.676v4.993c0,0.346,0.006,0.765,0.02,1.258
		c0.02,0.373,0.077,0.626,0.169,0.759c0.093,0.133,0.233,0.243,0.42,0.33v0.419h-3.095c-0.087-0.22-0.147-0.426-0.18-0.619
		c-0.034-0.193-0.06-0.413-0.08-0.659c-0.395,0.426-0.85,0.789-1.366,1.088c-0.616,0.353-1.313,0.529-2.089,0.529
		c-0.991,0-1.81-0.281-2.456-0.844c-0.646-0.562-0.969-1.359-0.969-2.391c0-1.338,0.52-2.306,1.559-2.906
		c0.57-0.326,1.409-0.559,2.515-0.699L138.72,17.921z M140.46,19.249c-0.182,0.113-0.366,0.205-0.551,0.275
		c-0.186,0.07-0.44,0.135-0.764,0.195l-0.648,0.12c-0.608,0.106-1.043,0.236-1.308,0.389c-0.449,0.26-0.673,0.662-0.673,1.208
		c0,0.486,0.137,0.837,0.411,1.053c0.274,0.216,0.606,0.324,0.999,0.324c0.622,0,1.194-0.18,1.718-0.539s0.796-1.015,0.816-1.967
		V19.249z"/>
	<path fill="#BE1818" d="M154.558,14.282c0.713,0.589,1.069,1.566,1.069,2.931v7.329h-2.916v-6.62c0-0.572-0.076-1.012-0.227-1.318
		c-0.278-0.559-0.807-0.839-1.586-0.839c-0.958,0-1.616,0.409-1.973,1.228c-0.185,0.433-0.277,0.985-0.277,1.658v5.891h-2.846
		V13.677h2.756v1.588c0.364-0.559,0.709-0.962,1.034-1.208c0.583-0.439,1.323-0.659,2.218-0.659
		C152.93,13.398,153.845,13.692,154.558,14.282z"/>
	<path fill="#BE1818" d="M74.075,40.754c-0.861,0.719-2.092,1.078-3.691,1.078H67.32v5.292h-3.056V32.406h6.32
		c1.457,0,2.619,0.38,3.484,1.138c0.866,0.759,1.299,1.934,1.299,3.525C75.368,38.807,74.937,40.035,74.075,40.754z M71.728,35.452
		c-0.389-0.326-0.935-0.489-1.637-0.489H67.32v4.334h2.771c0.702,0,1.248-0.176,1.637-0.529c0.389-0.353,0.584-0.912,0.584-1.678
		C72.312,36.324,72.118,35.778,71.728,35.452z"/>
	<path fill="#BE1818" d="M81.916,40.504c0.53-0.066,0.908-0.15,1.136-0.25c0.409-0.173,0.614-0.443,0.614-0.809
		c0-0.446-0.157-0.754-0.471-0.924c-0.314-0.17-0.775-0.254-1.382-0.254c-0.681,0-1.164,0.166-1.447,0.499
		c-0.203,0.246-0.337,0.579-0.405,0.999h-2.746c0.06-0.952,0.328-1.734,0.803-2.346c0.755-0.959,2.052-1.438,3.891-1.438
		c1.197,0,2.259,0.236,3.189,0.709c0.929,0.473,1.394,1.365,1.394,2.676v4.993c0,0.346,0.006,0.765,0.02,1.258
		c0.02,0.373,0.077,0.626,0.169,0.759c0.093,0.133,0.233,0.243,0.42,0.33v0.419h-3.095c-0.087-0.22-0.147-0.426-0.18-0.619
		c-0.034-0.193-0.06-0.413-0.08-0.659c-0.395,0.426-0.85,0.789-1.366,1.088c-0.616,0.353-1.313,0.529-2.089,0.529
		c-0.991,0-1.81-0.281-2.456-0.844c-0.646-0.562-0.969-1.359-0.969-2.391c0-1.338,0.52-2.306,1.559-2.906
		c0.57-0.326,1.409-0.559,2.515-0.699L81.916,40.504z M83.655,41.832c-0.182,0.113-0.366,0.205-0.551,0.275
		c-0.186,0.07-0.44,0.135-0.764,0.195l-0.648,0.12c-0.608,0.106-1.043,0.236-1.308,0.389c-0.449,0.26-0.673,0.662-0.673,1.208
		c0,0.486,0.137,0.837,0.411,1.053c0.274,0.216,0.606,0.324,0.999,0.324c0.622,0,1.194-0.18,1.718-0.539
		c0.524-0.36,0.796-1.015,0.816-1.967V41.832z"/>
	<path fill="#BE1818" d="M87.859,38.367V36.34h1.518v-3.036h2.816v3.036h1.767v2.027h-1.767v5.751c0,0.446,0.057,0.724,0.17,0.834
		c0.113,0.11,0.459,0.165,1.038,0.165c0.086,0,0.178-0.002,0.275-0.005c0.096-0.003,0.192-0.008,0.284-0.015v2.127l-1.348,0.05
		c-1.345,0.046-2.263-0.186-2.756-0.699c-0.319-0.326-0.479-0.829-0.479-1.507v-6.7H87.859z"/>
	<path fill="#BE1818" d="M102.88,36.461c0.759,0.34,1.386,0.877,1.88,1.61c0.446,0.647,0.735,1.397,0.867,2.25
		c0.077,0.5,0.108,1.22,0.094,2.16h-7.927c0.044,1.092,0.424,1.857,1.138,2.296c0.435,0.273,0.958,0.409,1.569,0.409
		c0.648,0,1.175-0.167,1.58-0.499c0.221-0.18,0.416-0.429,0.586-0.749h2.905c-0.077,0.646-0.428,1.301-1.055,1.967
		c-0.975,1.058-2.339,1.588-4.094,1.588c-1.449,0-2.727-0.446-3.834-1.339c-1.107-0.893-1.66-2.345-1.66-4.357
		c0-1.885,0.5-3.331,1.499-4.337c0.999-1.006,2.297-1.509,3.892-1.509C101.267,35.951,102.12,36.121,102.88,36.461z M98.622,38.919
		c-0.402,0.414-0.655,0.976-0.758,1.684h4.902c-0.052-0.755-0.304-1.328-0.758-1.72s-1.016-0.587-1.688-0.587
		C99.59,38.297,99.025,38.505,98.622,38.919z"/>
	<path fill="#BE1818" d="M115.936,36.865c0.713,0.589,1.069,1.566,1.069,2.931v7.329h-2.916v-6.62c0-0.572-0.076-1.012-0.228-1.318
		c-0.278-0.559-0.807-0.839-1.586-0.839c-0.958,0-1.616,0.409-1.973,1.228c-0.185,0.433-0.277,0.985-0.277,1.658v5.891h-2.846V36.26
		h2.756v1.588c0.364-0.559,0.709-0.962,1.034-1.208c0.583-0.439,1.323-0.659,2.218-0.659
		C114.308,35.981,115.224,36.275,115.936,36.865z"/>
	<path fill="#BE1818" d="M118.533,38.367V36.34h1.518v-3.036h2.816v3.036h1.767v2.027h-1.767v5.751c0,0.446,0.057,0.724,0.17,0.834
		c0.113,0.11,0.459,0.165,1.038,0.165c0.086,0,0.178-0.002,0.275-0.005c0.096-0.003,0.192-0.008,0.284-0.015v2.127l-1.348,0.05
		c-1.345,0.046-2.263-0.186-2.756-0.699c-0.319-0.326-0.479-0.829-0.479-1.507v-6.7H118.533z"/>
	<path fill="#BE1818" d="M75.528,68.399c-1.111,1.145-2.719,1.718-4.822,1.718c-2.104,0-3.711-0.573-4.823-1.718
		c-1.492-1.404-2.237-3.428-2.237-6.071c0-2.696,0.745-4.719,2.237-6.071c1.111-1.145,2.719-1.717,4.823-1.717
		c2.103,0,3.711,0.573,4.822,1.717c1.485,1.351,2.227,3.375,2.227,6.071C77.754,64.971,77.012,66.995,75.528,68.399z M73.606,66.163
		c0.715-0.899,1.073-2.177,1.073-3.834c0-1.651-0.358-2.927-1.073-3.829c-0.716-0.902-1.683-1.353-2.901-1.353
		c-1.218,0-2.19,0.449-2.916,1.348c-0.726,0.899-1.089,2.177-1.089,3.834s0.363,2.936,1.089,3.834
		c0.725,0.898,1.698,1.348,2.916,1.348C71.923,67.51,72.89,67.061,73.606,66.163z"/>
	<path fill="#BE1818" d="M84.375,54.855c0.146,0.01,0.346,0.025,0.599,0.045v2.317c-0.16-0.02-0.428-0.035-0.804-0.045
		c-0.376-0.01-0.636,0.073-0.779,0.25c-0.143,0.176-0.215,0.371-0.215,0.584c0,0.213,0,0.519,0,0.919h1.867v2.007h-1.867v8.777
		H80.35V60.93h-1.598v-2.007h1.558v-0.699c0-1.165,0.196-1.967,0.589-2.406c0.413-0.652,1.408-0.978,2.986-0.978
		C84.065,54.839,84.228,54.844,84.375,54.855z"/>
	<path fill="#BE1818" d="M91.184,54.855c0.146,0.01,0.346,0.025,0.599,0.045v2.317c-0.16-0.02-0.428-0.035-0.804-0.045
		c-0.376-0.01-0.636,0.073-0.779,0.25c-0.143,0.176-0.215,0.371-0.215,0.584c0,0.213,0,0.519,0,0.919h1.867v2.007h-1.867v8.777
		H87.16V60.93h-1.598v-2.007h1.558v-0.699c0-1.165,0.196-1.967,0.589-2.406c0.413-0.652,1.408-0.978,2.986-0.978
		C90.875,54.839,91.038,54.844,91.184,54.855z"/>
	<path fill="#BE1818" d="M96.416,57.525h-2.886v-2.626h2.886V57.525z M93.531,58.823h2.886v10.884h-2.886V58.823z"/>
	<path fill="#BE1818" d="M105.682,62.728c-0.053-0.406-0.19-0.772-0.41-1.098c-0.32-0.439-0.818-0.659-1.492-0.659
		c-0.961,0-1.618,0.476-1.972,1.428c-0.187,0.505-0.28,1.175-0.28,2.012c0,0.797,0.093,1.438,0.28,1.922
		c0.341,0.905,0.981,1.358,1.922,1.358c0.667,0,1.141-0.18,1.421-0.539c0.28-0.36,0.45-0.825,0.51-1.398h2.906
		c-0.067,0.865-0.38,1.684-0.94,2.456c-0.893,1.245-2.215,1.867-3.968,1.867c-1.753,0-3.042-0.519-3.868-1.558
		c-0.826-1.038-1.239-2.385-1.239-4.039c0-1.867,0.456-3.32,1.369-4.358c0.913-1.039,2.172-1.558,3.778-1.558
		c1.366,0,2.483,0.306,3.353,0.918c0.869,0.613,1.384,1.694,1.544,3.245H105.682z"/>
	<path fill="#BE1818" d="M117.638,59.044c0.759,0.34,1.386,0.877,1.88,1.61c0.446,0.647,0.735,1.397,0.867,2.25
		c0.077,0.5,0.108,1.22,0.094,2.16h-7.927c0.044,1.092,0.424,1.857,1.138,2.296c0.435,0.273,0.958,0.409,1.569,0.409
		c0.648,0,1.175-0.167,1.58-0.499c0.221-0.18,0.416-0.429,0.586-0.749h2.905c-0.077,0.646-0.428,1.301-1.055,1.967
		c-0.975,1.058-2.339,1.588-4.094,1.588c-1.449,0-2.727-0.446-3.834-1.339c-1.107-0.893-1.66-2.345-1.66-4.357
		c0-1.885,0.5-3.331,1.499-4.337c0.999-1.006,2.297-1.509,3.892-1.509C116.025,58.534,116.878,58.704,117.638,59.044z
		 M113.38,61.502c-0.402,0.414-0.655,0.976-0.758,1.684h4.902c-0.052-0.755-0.304-1.328-0.758-1.72s-1.016-0.587-1.688-0.587
		C114.348,60.88,113.783,61.088,113.38,61.502z"/>
</g>
</svg>
