<?xml version="1.0" encoding="utf-8"?>
<!-- Generator: Adobe Illustrator 17.0.0, SVG Export Plug-In . SVG Version: 6.00 Build 0)  -->
<!DOCTYPE svg PUBLIC "-//W3C//DTD SVG 1.0//EN" "http://www.w3.org/TR/2001/REC-SVG-20010904/DTD/svg10.dtd">
<svg version="1.0" id="Layer_1" xmlns="http://www.w3.org/2000/svg" xmlns:xlink="http://www.w3.org/1999/xlink" x="0px" y="0px"
	 width="107.667px" height="80px" viewBox="0 0 107.667 80" enable-background="new 0 0 107.667 80" xml:space="preserve">
<polygon fill-rule="evenodd" clip-rule="evenodd" fill="#00A0DC" points="19.633,54.085 30.985,42.732 21.217,42.732 11.581,52.501 
	11.581,42.732 1.813,42.732 1.813,68.737 11.581,68.737 11.581,58.969 21.217,68.737 34.286,68.737 19.633,54.217 19.633,54.085 "/>
<polygon fill-rule="evenodd" clip-rule="evenodd" fill="#00A0DC" points="60.158,62.269 60.158,68.737 34.153,68.737 34.153,42.732 
	43.922,42.732 43.922,62.269 60.158,62.269 "/>
<polygon fill-rule="evenodd" clip-rule="evenodd" fill="#00A0DC" points="89.463,68.737 95.931,47.616 95.931,68.737 105.7,68.737 
	105.7,42.732 89.463,42.732 84.579,58.441 79.695,42.732 63.458,42.732 63.458,68.737 73.226,68.737 73.226,47.616 79.695,68.737 
	89.463,68.737 "/>
<polygon fill-rule="evenodd" clip-rule="evenodd" fill="#00A0DC" points="34.153,36.264 73.226,36.264 73.226,29.796 34.153,29.796 
	34.153,36.264 "/>
<path fill-rule="evenodd" clip-rule="evenodd" fill="#00A0DC" d="M34.153,29.004c3.168,0,5.808-2.508,5.808-5.676
	c0-3.168-2.64-5.676-5.808-5.676c-3.036,0-5.676,2.508-5.676,5.676C28.477,26.496,31.118,29.004,34.153,29.004L34.153,29.004z"/>
<path fill-rule="evenodd" clip-rule="evenodd" fill="#00A0DC" d="M47.222,29.004c3.168,0,5.676-2.508,5.676-5.676
	c0-3.168-2.508-5.676-5.676-5.676c-3.168,0-5.676,2.508-5.676,5.676C41.546,26.496,44.054,29.004,47.222,29.004L47.222,29.004z"/>
<path fill-rule="evenodd" clip-rule="evenodd" fill="#00A0DC" d="M60.158,29.004c3.168,0,5.676-2.508,5.676-5.676
	c0-3.168-2.508-5.676-5.676-5.676c-3.036,0-5.676,2.508-5.676,5.676C54.482,26.496,57.122,29.004,60.158,29.004L60.158,29.004z"/>
<path fill-rule="evenodd" clip-rule="evenodd" fill="#00A0DC" d="M73.226,29.004c3.168,0,5.676-2.508,5.676-5.676
	c0-3.168-2.508-5.676-5.676-5.676c-3.168,0-5.676,2.508-5.676,5.676C67.55,26.496,70.058,29.004,73.226,29.004L73.226,29.004z"/>
<polygon fill-rule="evenodd" clip-rule="evenodd" fill="#00A0DC" points="52.106,11.315 48.806,11.315 48.806,14.484 52.106,14.484 
	52.106,17.784 55.274,17.784 55.274,14.484 58.574,14.484 58.574,11.315 55.274,11.315 55.274,8.015 52.106,8.015 52.106,11.315 "/>
</svg>
