<?xml version="1.0" encoding="UTF-8" standalone="no"?>
<svg xmlns:dc="http://purl.org/dc/elements/1.1/" xmlns:cc="http://creativecommons.org/ns#" xmlns:rdf="http://www.w3.org/1999/02/22-rdf-syntax-ns#" xmlns:svg="http://www.w3.org/2000/svg" xmlns="http://www.w3.org/2000/svg"
version="1.1" width="145" height="76.650002" viewBox="0 0 145.00001 76.650001"
id="Laag_1"
xml:space="preserve">
	<metadata
	id="metadata3213">
		<rdf:RDF>
			<cc:Work
			rdf:about="">
				<dc:format>image/svg+xml</dc:format>
				<dc:type
				rdf:resource="http://purl.org/dc/dcmitype/StillImage" />
				<dc:title></dc:title>
			</cc:Work>
		</rdf:RDF>
	</metadata>
	<defs
	id="defs3211" />
	<linearGradient
	x1="266.7153"
	y1="200.7231"
	x2="286.89941"
	y2="207.21919"
	id="SVGID_1_"
	gradientUnits="userSpaceOnUse"
	gradientTransform="matrix(1,0,0,-1,-228.0993,216.5095)">
		<stop
		id="stop3102"
		style="stop-color:#ffdd00;stop-opacity:1"
		offset="0" />
		<stop
		id="stop3104"
		style="stop-color:#fdd200;stop-opacity:1"
		offset="0.1081" />
		<stop
		id="stop3106"
		style="stop-color:#f8b200;stop-opacity:1"
		offset="0.47850001" />
		<stop
		id="stop3108"
		style="stop-color:#f49e00;stop-opacity:1"
		offset="0.78890002" />
		<stop
		id="stop3110"
		style="stop-color:#f39700;stop-opacity:1"
		offset="1" />
	</linearGradient>
	<path
	d="m 61.573822,17.331281 c -2.473,-1.886001 -5.795,-2.951001 -9.338,-3.015001 l 1.731,-9.1640004 -7.112,9.3900004 c -4.049,0.571 -8.371,2.054001 -12.244,4.367001 l -5.188,-7.250001 c 2.26,-1.449 4.611,-2.8449992 7.137,-3.8980003 15.822,-6.6020003 27.894,-4.9940002 38.359,1.339001 l -13.345,8.2310003 z"
	id="path3112"
	style="fill:url(#SVGID_1_)" />
	<g
	transform="translate(-330.4992,-261.6507)"
	id="g3114">
		<g
		id="g3116">
			<path
			d="m 391.143,317.095 0.002,-0.002 -0.002,0.002 z"
			id="path3118"
			style="fill:none" />
		</g>
		<g
		id="g3120">
			<g
			id="g3122">

				<radialGradient
				cx="260.1113"
				cy="200.5"
				r="47.553699"
				id="SVGID_2_"
				gradientUnits="userSpaceOnUse"
				gradientTransform="matrix(1,0,0,-1,102.3999,478.1602)">
					<stop
					id="stop3125"
					style="stop-color:#009ee0;stop-opacity:1"
					offset="0" />
					<stop
					id="stop3127"
					style="stop-color:#009bdd;stop-opacity:1"
					offset="0.28920001" />
					<stop
					id="stop3129"
					style="stop-color:#0092d5;stop-opacity:1"
					offset="0.49380001" />
					<stop
					id="stop3131"
					style="stop-color:#0082c8;stop-opacity:1"
					offset="0.67210001" />
					<stop
					id="stop3133"
					style="stop-color:#006db4;stop-opacity:1"
					offset="0.83490002" />
					<stop
					id="stop3135"
					style="stop-color:#006ab2;stop-opacity:1"
					offset="0.85039997" />
					<stop
					id="stop3137"
					style="stop-color:#005ea8;stop-opacity:1"
					offset="1" />
				</radialGradient>
				<path
				d="m 365.359,281.061 -5.187,-7.25 c -6.467,4.14 -12.103,9.504 -15.95,15.492 l 4.149,1.943 -6.51,2.284 c -2.801,5.884 -3.819,12.2 -2.249,18.448 l 15.625,-9.596 c -3.396,-6.275 0.746,-15.591 10.122,-21.321 z"
				id="path3139"
				style="fill:url(#SVGID_2_)" />
			</g>
			<g
			id="g3141">

				<radialGradient
				cx="260.1113"
				cy="200.5"
				r="47.554699"
				id="SVGID_3_"
				gradientUnits="userSpaceOnUse"
				gradientTransform="matrix(1,0,0,-1,102.3999,478.1602)">
					<stop
					id="stop3144"
					style="stop-color:#009ee0;stop-opacity:1"
					offset="0" />
					<stop
					id="stop3146"
					style="stop-color:#009bdd;stop-opacity:1"
					offset="0.28920001" />
					<stop
					id="stop3148"
					style="stop-color:#0092d5;stop-opacity:1"
					offset="0.49380001" />
					<stop
					id="stop3150"
					style="stop-color:#0082c8;stop-opacity:1"
					offset="0.67210001" />
					<stop
					id="stop3152"
					style="stop-color:#006db4;stop-opacity:1"
					offset="0.83490002" />
					<stop
					id="stop3154"
					style="stop-color:#006ab2;stop-opacity:1"
					offset="0.85039997" />
					<stop
					id="stop3156"
					style="stop-color:#005ea8;stop-opacity:1"
					offset="1" />
				</radialGradient>
				<path
				d="m 362.187,325.787 c 8.301,-0.332 17.978,-3.638 27.517,-10.703 l -7.638,-10.675 c -3.784,2.104 -7.624,3.386 -11.207,3.877 l -8.607,11.982 1.615,-12.103 c -3.187,-0.625 -5.864,-2.083 -7.681,-4.352 -0.095,-0.119 -0.186,-0.24 -0.275,-0.362 l -15.938,9.793 c 2.199,6.841 8.538,11.303 16.965,12.339 l 4.784,-3.991 0.465,4.195 z"
				id="path3158"
				style="fill:url(#SVGID_3_)" />
			</g>
			<radialGradient
			cx="260.11179"
			cy="200.5005"
			r="47.555401"
			id="SVGID_4_"
			gradientUnits="userSpaceOnUse"
			gradientTransform="matrix(1,0,0,-1,102.3999,478.1602)">
				<stop
				id="stop3161"
				style="stop-color:#009ee0;stop-opacity:1"
				offset="0" />
				<stop
				id="stop3163"
				style="stop-color:#009bdd;stop-opacity:1"
				offset="0.28920001" />
				<stop
				id="stop3165"
				style="stop-color:#0092d5;stop-opacity:1"
				offset="0.49380001" />
				<stop
				id="stop3167"
				style="stop-color:#0082c8;stop-opacity:1"
				offset="0.67210001" />
				<stop
				id="stop3169"
				style="stop-color:#006db4;stop-opacity:1"
				offset="0.83490002" />
				<stop
				id="stop3171"
				style="stop-color:#006ab2;stop-opacity:1"
				offset="0.85039997" />
				<stop
				id="stop3173"
				style="stop-color:#005ea8;stop-opacity:1"
				offset="1" />
			</radialGradient>
			<path
			d="m 400.806,309.454 -1.131,0.003 c -27.209,27.812 -56.944,21.079 -61.818,4.12 -5.311,-18.476 13.27,-39.008 32.537,-45.929 -17.543,3.56 -44.838,28.244 -36.272,52.174 5.904,16.491 34.993,21.3 60.125,1.611 l -1.894,-2.646 c 4.339,-3.644 7.269,-7.063 8.453,-9.333 z"
			id="path3175"
			style="fill:url(#SVGID_4_)" />
		</g>
		<g
		id="g3177">
			<path
			d="m 370.858,308.286 -6.2,8.63 -0.652,3.671 7.917,-10.394 c 3.53,-0.573 7.645,-1.911 11.386,-4.045 l -1.244,-1.739 c -3.784,2.105 -7.624,3.386 -11.207,3.877 z"
			id="path3179"
			style="opacity:0.7;fill:#003d8f" />
			<path
			d="m 363.607,310.102 0.259,-1.936 c -3.187,-0.625 -5.864,-2.083 -7.681,-4.352 -0.095,-0.119 -0.186,-0.24 -0.275,-0.362 l -0.966,0.593 c 0.194,0.354 0.41,0.701 0.648,1.037 1.835,2.575 4.636,4.266 8.015,5.02 z"
			id="path3181"
			style="opacity:0.7;fill:#003d8f" />
			<path
			d="m 355.362,291.842 c -1.863,3.801 -2.273,7.736 -0.958,11.052 l 0.833,-0.511 c -1.65,-3.05 -1.52,-6.817 0.125,-10.541 z"
			id="path3183"
			style="opacity:0.7;fill:#003d8f" />
		</g>
		<path
		d="m 467.286,286.864 c -0.895,-3.374 -3.555,-4.739 -7.299,-4.616 -0.936,0.031 -2.027,0.179 -3.154,0.389 l 3.305,-8.632 h -6.389 l -10.713,27.919 -0.082,0.202 h 0.004 l -0.004,0.01 0.008,-0.01 4.465,-0.004 1.846,-1.347 c 0,0 1.018,1.286 3.195,1.593 5.545,0.781 10.215,-2.559 12.701,-6.411 1.754,-2.714 2.809,-6.49 2.117,-9.093 z m -7.834,8.518 c -1.289,1.854 -3.068,3.234 -4.963,3.267 -1.672,0.03 -3.244,-0.933 -2.275,-3.983 1.002,-3.17 3.068,-8.015 3.068,-8.015 4.887,-1.972 6.473,0.549 6.416,2.505 -0.035,1.241 -0.644,3.921 -2.246,6.226 z"
		id="path3185"
		style="fill:#003d86" />
		<path
		d="m 376.993,282.24 c -4.248,0.417 -7.552,1.63 -10.906,4.695 -2.587,2.365 -4.277,6.071 -4.353,9.014 -0.098,3.816 2.768,7.212 8.446,6.331 1.537,-0.238 3.471,-1.514 3.471,-1.514 l 0.887,1.347 4.467,0.005 7.048,-18.382 c -1.363,-0.685 -4.736,-1.922 -9.06,-1.496 z m 2.046,3.772 c 0,0 -2.026,5.476 -3.517,8.643 -1.437,3.053 -3.419,4.094 -5.005,3.986 -1.73,-0.12 -2.758,-1.326 -2.721,-3.268 0.047,-2.405 1.535,-4.998 2.602,-6.227 0.971,-1.121 3.78,-3.819 8.641,-3.134 z"
		id="path3187"
		style="fill:#003d86" />
		<path
		d="m 409.136,299.544 6.422,-16.782 h 6.334 l -6.025,15.742 c 1.799,0.937 5.172,0.41 6.621,-2.847 l 4.922,-12.896 h 6.367 l -6.068,15.771 c 2.512,0.825 5.217,0.381 6.596,-2.875 l 4.945,-12.896 h 6.316 l -5.039,13.032 c -1.264,2.917 -3.318,6.914 -10.369,6.914 -2.363,0 -4.504,-0.834 -5.875,-1.927 -1.547,0.947 -4.783,1.927 -7.221,1.927 -2.438,0 -6.866,-0.869 -7.926,-3.163 z"
		id="path3189"
		style="fill:#003d86" />
		<g
		id="g3191">
			<path
			d="m 390.947,283.655 -7.09,18.482 h 6.483 l 5.988,-15.517 c 0.84,-0.212 2.131,-0.387 3.2,-0.387 2.096,0 2.998,0.808 2.857,1.864 -0.031,0.244 -0.109,0.49 -0.232,0.773 l -5.094,13.266 h 6.489 l 5.014,-13.021 c 0.199,-0.528 0.352,-1.019 0.416,-1.512 0.373,-2.849 -1.682,-5.28 -7.889,-5.287 -1.954,-0.002 -3.69,0.126 -4.805,0.26 -1.016,0.121 -2.848,0.383 -5.337,1.079 z"
			id="path3193"
			style="fill:#003d86" />
		</g>
	</g>
	<path
	d="m 53.244822,9.0192807 -1.01,5.2949993 c 0.516,0.006 1.004,0.041 1.515,0.089 l 1.488,-8.8800004 -1.993,3.4960011 z"
	id="path3195"
	style="fill:#e37006" />
	<g
	transform="translate(-330.4992,-261.6507)"
	id="g3197">
		<g
		id="g3199">
			<path
			d="m 405.448,270.753 c -8.163,-7.063 -21.684,-8.315 -35.313,-3.599 0.005,-10e-4 0.01,-0.002 0.015,-0.003 -19.268,6.921 -37.848,27.452 -32.538,45.929 4.874,16.959 34.608,23.692 61.818,-4.12 h -2.936 c 0,0 -3.416,3.301 -7.045,5.613 l 0.01,0.014 c -9.539,7.064 -19.216,10.371 -27.517,10.703 l -0.465,-4.193 -4.784,3.99 c -8.427,-1.036 -14.766,-5.498 -16.965,-12.339 l 15.933,-9.796 c -0.337,-0.453 -0.537,-0.826 -0.674,-1.069 l -15.619,9.6 c -1.57,-6.249 -0.552,-12.565 2.249,-18.449 l 6.51,-2.285 -4.149,-1.942 c 3.848,-5.989 9.483,-11.353 15.951,-15.492 2.261,-1.45 4.611,-2.845 7.137,-3.898 0.495,-0.207 0.986,-0.404 1.473,-0.596 15.103,-5.9 26.749,-4.202 36.889,1.935 l 0.02,-0.003 z"
			id="path3201"
			style="fill:#ffffff" />
		</g>
	</g>
	<g
	transform="translate(-330.4992,-261.6507)"
	id="g3203">
		<path
		d="m 384.237,267.952 0.229,-1.148 -7.113,9.388 c 0.563,-0.073 1.026,-0.131 1.59,-0.172 l 5.294,-8.068 z"
		id="path3205"
		style="fill:#ffffff" />
		<path
		d="m 364.973,307.882 c -0.634,-0.086 -0.776,-0.11 -1.358,-0.217 l -1.615,12.103 0.672,-0.936 2.301,-10.95 z"
		id="path3207"
		style="fill:#ffffff" />
	</g>
</svg>